<svg width="169" height="16" viewBox="0 0 169 16" fill="none" xmlns="http://www.w3.org/2000/svg">
<path d="M6.365 9.825H2.765V2.7C2.765 2.04 2.21 1.5 1.55 1.5C0.89 1.5 0.35 2.04 0.35 2.7V11.085C0.35 11.655 0.815 12 1.355 12H6.365C7.07 12 7.55 11.505 7.55 10.905C7.55 10.305 7.07 9.825 6.365 9.825ZM16.3108 7.725C16.3108 5.85 14.4808 3.93 12.2608 3.93C9.89082 3.93 8.13582 5.79 8.13582 8.07C8.13582 10.47 9.93582 12.15 12.5008 12.15C13.3408 12.15 14.4508 11.985 15.1408 11.595C15.5758 11.355 15.8008 11.04 15.8008 10.635C15.8008 10.065 15.3508 9.66 14.8408 9.66C14.6158 9.66 14.4208 9.735 14.2408 9.84C13.8808 10.05 13.3108 10.26 12.6058 10.26C11.4958 10.26 10.5808 9.735 10.3108 8.925H15.4408C15.8908 8.925 16.3108 8.58 16.3108 7.725ZM10.2658 7.38C10.4458 6.585 11.2408 5.91 12.2308 5.91C13.2208 5.91 14.0008 6.585 14.1808 7.38H10.2658ZM21.2724 9.855H20.8524C20.2374 9.855 19.9074 9.66 19.9074 8.895L19.9224 6.15H21.3024C21.8874 6.15 22.3374 5.685 22.3374 5.1C22.3374 4.545 21.8874 4.08 21.3024 4.08H19.9374L19.9524 2.94C19.9524 2.31 19.4724 1.89 18.9024 1.89C18.2874 1.89 17.8074 2.31 17.8074 2.94V4.08H17.6124C17.0274 4.08 16.5774 4.545 16.5774 5.1C16.5774 5.685 17.0274 6.15 17.6124 6.15H17.8074V9.045C17.8074 10.185 17.9424 10.92 18.3624 11.385C18.7524 11.82 19.3074 12 20.3724 12H21.2724C21.8724 12 22.3524 11.52 22.3524 10.92C22.3524 10.335 21.8724 9.855 21.2724 9.855ZM24.5929 1.65C23.8579 1.65 23.3329 2.235 23.3329 2.865C23.3329 3.45 23.7529 4.065 24.4579 4.125C24.2929 4.455 24.0079 4.68 23.5879 4.86C23.4829 4.905 23.3929 5.01 23.3929 5.145C23.3929 5.295 23.4979 5.46 23.7079 5.46C25.0129 5.46 25.8979 4.215 25.8979 3.12C25.8979 2.265 25.3429 1.65 24.5929 1.65ZM24.5779 3.57V3.465V3.57ZM30.1698 10.365C30.8148 10.365 31.0248 10.11 31.0248 9.78C31.0248 9.495 30.8448 9.3 30.4848 9.15L29.2698 8.67C27.8598 8.115 27.1698 7.245 27.1698 6.285C27.1698 5.1 28.2048 3.93 30.2298 3.93C31.3098 3.93 32.2398 4.125 32.8248 4.65C33.0048 4.815 33.1098 5.07 33.1098 5.295C33.1098 5.775 32.7498 6.105 32.2848 6.105C31.8348 6.105 31.5648 5.97 31.2048 5.865C30.8448 5.76 30.4998 5.715 30.2598 5.715C29.7348 5.715 29.4798 5.925 29.4798 6.285C29.4798 6.54 29.6148 6.75 30.0198 6.9L31.4448 7.485C32.9148 8.07 33.3198 8.91 33.3198 9.705C33.3198 10.995 32.2848 12.15 30.1098 12.15C29.0148 12.15 28.0398 11.88 27.3648 11.475C26.9898 11.25 26.7948 10.95 26.7948 10.65C26.7948 10.17 27.1548 9.795 27.6198 9.795C28.0698 9.795 28.3098 9.99 28.8198 10.14C29.2098 10.26 29.7648 10.365 30.1698 10.365ZM41.6076 3.93C40.8876 3.93 40.2276 4.14 39.6426 4.59V1.71C39.6426 1.08 39.1626 0.659999 38.5776 0.659999C37.9776 0.659999 37.4976 1.08 37.4976 1.71V7.905C37.4976 10.335 39.3426 12.15 41.6076 12.15C43.8726 12.15 45.7026 10.32 45.7026 8.025C45.7026 5.76 43.8726 3.93 41.6076 3.93ZM41.6526 10.05C40.5576 10.05 39.6426 9.165 39.6426 8.025C39.6426 6.915 40.5576 6.03 41.6526 6.03C42.7776 6.03 43.6626 6.915 43.6626 8.025C43.6626 9.165 42.7776 10.05 41.6526 10.05ZM53.174 3.93C52.589 3.93 52.109 4.41 52.109 5.01V8.385C52.109 9.375 51.464 9.945 50.609 9.945C49.739 9.945 49.124 9.375 49.124 8.385V5.01C49.124 4.41 48.644 3.93 48.044 3.93C47.459 3.93 46.979 4.41 46.979 5.01V9.015C46.979 10.725 48.014 12.15 49.859 12.15C50.894 12.15 51.629 11.64 52.109 11.085V11.58C52.109 11.85 52.259 12 52.529 12H53.834C54.104 12 54.254 11.85 54.254 11.58V5.01C54.254 4.41 53.774 3.93 53.174 3.93ZM57.2461 3.12C57.9211 3.12 58.4761 2.565 58.4761 1.875C58.4761 1.2 57.9211 0.645 57.2461 0.645C56.5561 0.645 56.0011 1.2 56.0011 1.875C56.0011 2.565 56.5561 3.12 57.2461 3.12ZM58.3261 5.01C58.3261 4.41 57.8461 3.93 57.2461 3.93C56.6611 3.93 56.1811 4.41 56.1811 5.01V11.415C56.1811 11.805 56.3761 12 56.7661 12H57.7561C58.1311 12 58.3261 11.805 58.3261 11.415V5.01ZM60.133 11.415C60.133 11.805 60.328 12 60.718 12H61.708C62.083 12 62.278 11.805 62.278 11.415V1.74C62.278 1.14 61.798 0.659999 61.198 0.659999C60.613 0.659999 60.133 1.14 60.133 1.74V11.415ZM70.6612 0.659999C70.0762 0.659999 69.5962 1.08 69.5962 1.71V4.59C69.0112 4.14 68.3512 3.93 67.6312 3.93C65.3662 3.93 63.5362 5.76 63.5362 8.025C63.5362 10.32 65.3662 12.15 67.6312 12.15C69.8962 12.15 71.7412 10.335 71.7412 7.905V1.71C71.7412 1.08 71.2612 0.659999 70.6612 0.659999ZM67.5862 10.05C66.4612 10.05 65.5762 9.165 65.5762 8.025C65.5762 6.915 66.4612 6.03 67.5862 6.03C68.6812 6.03 69.5962 6.915 69.5962 8.025C69.5962 9.165 68.6812 10.05 67.5862 10.05ZM80.247 9.855H79.827C79.212 9.855 78.882 9.66 78.882 8.895L78.897 6.15H80.277C80.862 6.15 81.312 5.685 81.312 5.1C81.312 4.545 80.862 4.08 80.277 4.08H78.912L78.927 2.94C78.927 2.31 78.447 1.89 77.877 1.89C77.262 1.89 76.782 2.31 76.782 2.94V4.08H76.587C76.002 4.08 75.552 4.545 75.552 5.1C75.552 5.685 76.002 6.15 76.587 6.15H76.782V9.045C76.782 10.185 76.917 10.92 77.337 11.385C77.727 11.82 78.282 12 79.347 12H80.247C80.847 12 81.327 11.52 81.327 10.92C81.327 10.335 80.847 9.855 80.247 9.855ZM82.4425 11.58V1.74C82.4425 1.14 82.9225 0.659999 83.5075 0.659999C84.1075 0.659999 84.5875 1.14 84.5875 1.74L84.6025 4.62C85.1425 4.185 85.8775 3.93 86.6725 3.93C88.5325 3.93 89.7175 5.295 89.7175 7.515V11.58C89.7175 11.85 89.5675 12 89.2975 12H87.9925C87.7225 12 87.5725 11.85 87.5725 11.58V7.545C87.5725 6.66 86.9575 5.985 86.0875 5.985C85.2325 5.985 84.5875 6.66 84.5875 7.545V11.58C84.5875 11.85 84.4375 12 84.1675 12H82.8625C82.5925 12 82.4425 11.85 82.4425 11.58ZM92.6074 3.12C93.2824 3.12 93.8374 2.565 93.8374 1.875C93.8374 1.2 93.2824 0.645 92.6074 0.645C91.9174 0.645 91.3624 1.2 91.3624 1.875C91.3624 2.565 91.9174 3.12 92.6074 3.12ZM93.6874 5.01C93.6874 4.41 93.2074 3.93 92.6074 3.93C92.0224 3.93 91.5424 4.41 91.5424 5.01V11.415C91.5424 11.805 91.7374 12 92.1274 12H93.1174C93.4924 12 93.6874 11.805 93.6874 11.415V5.01ZM98.3143 10.365C98.9593 10.365 99.1693 10.11 99.1693 9.78C99.1693 9.495 98.9893 9.3 98.6293 9.15L97.4143 8.67C96.0043 8.115 95.3143 7.245 95.3143 6.285C95.3143 5.1 96.3493 3.93 98.3743 3.93C99.4543 3.93 100.384 4.125 100.969 4.65C101.149 4.815 101.254 5.07 101.254 5.295C101.254 5.775 100.894 6.105 100.429 6.105C99.9793 6.105 99.7093 5.97 99.3493 5.865C98.9893 5.76 98.6443 5.715 98.4043 5.715C97.8793 5.715 97.6243 5.925 97.6243 6.285C97.6243 6.54 97.7593 6.75 98.1643 6.9L99.5893 7.485C101.059 8.07 101.464 8.91 101.464 9.705C101.464 10.995 100.429 12.15 98.2543 12.15C97.1593 12.15 96.1843 11.88 95.5093 11.475C95.1343 11.25 94.9393 10.95 94.9393 10.65C94.9393 10.17 95.2993 9.795 95.7643 9.795C96.2143 9.795 96.4543 9.99 96.9643 10.14C97.3543 10.26 97.9093 10.365 98.3143 10.365ZM109.617 9.855H109.197C108.582 9.855 108.252 9.66 108.252 8.895L108.267 6.15H109.647C110.232 6.15 110.682 5.685 110.682 5.1C110.682 4.545 110.232 4.08 109.647 4.08H108.282L108.297 2.94C108.297 2.31 107.817 1.89 107.247 1.89C106.632 1.89 106.152 2.31 106.152 2.94V4.08H105.957C105.372 4.08 104.922 4.545 104.922 5.1C104.922 5.685 105.372 6.15 105.957 6.15H106.152V9.045C106.152 10.185 106.287 10.92 106.707 11.385C107.097 11.82 107.652 12 108.717 12H109.617C110.217 12 110.697 11.52 110.697 10.92C110.697 10.335 110.217 9.855 109.617 9.855ZM115.268 12.15C117.533 12.15 119.363 10.32 119.363 8.025C119.363 5.76 117.533 3.93 115.268 3.93C113.003 3.93 111.173 5.76 111.173 8.025C111.173 10.32 113.003 12.15 115.268 12.15ZM115.268 10.05C114.173 10.05 113.258 9.165 113.258 8.025C113.258 6.915 114.173 6.03 115.268 6.03C116.393 6.03 117.278 6.915 117.278 8.025C117.278 9.165 116.393 10.05 115.268 10.05ZM127.366 3.93C126.886 3.93 126.481 4.245 126.346 4.68C125.731 4.155 124.996 3.93 124.201 3.93C122.041 3.93 120.196 5.76 120.196 8.025C120.196 10.32 122.041 12.15 124.201 12.15C124.891 12.15 125.341 11.97 125.611 11.835C125.821 11.73 125.986 11.58 126.091 11.58C126.211 11.58 126.241 11.67 126.241 11.775C126.241 12.555 125.356 13.38 124.201 13.38C122.881 13.38 122.221 12.615 121.441 12.615C120.886 12.615 120.436 13.05 120.436 13.62C120.436 14.76 122.356 15.495 124.066 15.495C126.826 15.495 128.446 13.635 128.446 11.415V5.01C128.446 4.41 127.966 3.93 127.366 3.93ZM124.291 10.05C123.196 10.05 122.281 9.165 122.281 8.025C122.281 6.915 123.196 6.03 124.291 6.03C125.416 6.03 126.301 6.915 126.301 8.025C126.301 9.165 125.416 10.05 124.291 10.05ZM137.966 7.725C137.966 5.85 136.136 3.93 133.916 3.93C131.546 3.93 129.791 5.79 129.791 8.07C129.791 10.47 131.591 12.15 134.156 12.15C134.996 12.15 136.106 11.985 136.796 11.595C137.231 11.355 137.456 11.04 137.456 10.635C137.456 10.065 137.006 9.66 136.496 9.66C136.271 9.66 136.076 9.735 135.896 9.84C135.536 10.05 134.966 10.26 134.261 10.26C133.151 10.26 132.236 9.735 131.966 8.925H137.096C137.546 8.925 137.966 8.58 137.966 7.725ZM131.921 7.38C132.101 6.585 132.896 5.91 133.886 5.91C134.876 5.91 135.656 6.585 135.836 7.38H131.921ZM142.928 9.855H142.508C141.893 9.855 141.563 9.66 141.563 8.895L141.578 6.15H142.958C143.543 6.15 143.993 5.685 143.993 5.1C143.993 4.545 143.543 4.08 142.958 4.08H141.593L141.608 2.94C141.608 2.31 141.128 1.89 140.558 1.89C139.943 1.89 139.463 2.31 139.463 2.94V4.08H139.268C138.683 4.08 138.233 4.545 138.233 5.1C138.233 5.685 138.683 6.15 139.268 6.15H139.463V9.045C139.463 10.185 139.598 10.92 140.018 11.385C140.408 11.82 140.963 12 142.028 12H142.928C143.528 12 144.008 11.52 144.008 10.92C144.008 10.335 143.528 9.855 142.928 9.855ZM145.123 11.58V1.74C145.123 1.14 145.603 0.659999 146.188 0.659999C146.788 0.659999 147.268 1.14 147.268 1.74L147.283 4.62C147.823 4.185 148.558 3.93 149.353 3.93C151.213 3.93 152.398 5.295 152.398 7.515V11.58C152.398 11.85 152.248 12 151.978 12H150.673C150.403 12 150.253 11.85 150.253 11.58V7.545C150.253 6.66 149.638 5.985 148.768 5.985C147.913 5.985 147.268 6.66 147.268 7.545V11.58C147.268 11.85 147.118 12 146.848 12H145.543C145.273 12 145.123 11.85 145.123 11.58ZM161.843 7.725C161.843 5.85 160.013 3.93 157.793 3.93C155.423 3.93 153.668 5.79 153.668 8.07C153.668 10.47 155.468 12.15 158.033 12.15C158.873 12.15 159.983 11.985 160.673 11.595C161.108 11.355 161.333 11.04 161.333 10.635C161.333 10.065 160.883 9.66 160.373 9.66C160.148 9.66 159.953 9.735 159.773 9.84C159.413 10.05 158.843 10.26 158.138 10.26C157.028 10.26 156.113 9.735 155.843 8.925H160.973C161.423 8.925 161.843 8.58 161.843 7.725ZM155.798 7.38C155.978 6.585 156.773 5.91 157.763 5.91C158.753 5.91 159.533 6.585 159.713 7.38H155.798ZM167.705 6.06C168.32 6.06 168.74 5.565 168.74 5.025C168.74 4.575 168.485 4.2 168.08 4.035C167.825 3.93 167.54 3.93 167.18 3.93C166.31 3.93 165.635 4.02 164.84 4.515C163.655 5.235 162.83 6.57 162.83 8.1V11.58C162.83 11.85 162.98 12 163.25 12H164.555C164.825 12 164.975 11.85 164.975 11.58V8.085C164.975 6.87 165.92 6.03 166.955 6.03C167.24 6.03 167.45 6.06 167.705 6.06Z" fill="#ED1C24"/>
</svg>
