<svg width="167" height="20" viewBox="0 0 167 20" fill="none" xmlns="http://www.w3.org/2000/svg">
<path d="M10.264 6.04C11.32 6.04 12.184 5.296 12.184 4.24C12.184 3.184 11.32 2.44 10.264 2.44H2.08H2.056C1.024 2.44 0.16 3.064 0.16 4.312V18.184C0.16 18.688 0.472 19 0.976 19H3.232C3.712 19 4.024 18.688 4.024 18.184V12.88H9.184C10.24 12.88 11.104 12.136 11.104 11.08C11.104 10.024 10.24 9.28 9.184 9.28H4.024V6.04H10.264ZM18.8412 19.24C22.4652 19.24 25.3932 16.312 25.3932 12.64C25.3932 9.016 22.4652 6.088 18.8412 6.088C15.2172 6.088 12.2892 9.016 12.2892 12.64C12.2892 16.312 15.2172 19.24 18.8412 19.24ZM18.8412 15.88C17.0892 15.88 15.6252 14.464 15.6252 12.64C15.6252 10.864 17.0892 9.448 18.8412 9.448C20.6412 9.448 22.0572 10.864 22.0572 12.64C22.0572 14.464 20.6412 15.88 18.8412 15.88ZM33.2787 19.24C36.9027 19.24 39.8307 16.312 39.8307 12.64C39.8307 9.016 36.9027 6.088 33.2787 6.088C29.6547 6.088 26.7267 9.016 26.7267 12.64C26.7267 16.312 29.6547 19.24 33.2787 19.24ZM33.2787 15.88C31.5267 15.88 30.0627 14.464 30.0627 12.64C30.0627 10.864 31.5267 9.448 33.2787 9.448C35.0787 9.448 36.4947 10.864 36.4947 12.64C36.4947 14.464 35.0787 15.88 33.2787 15.88ZM47.9562 15.568H47.2842C46.3002 15.568 45.7722 15.256 45.7722 14.032L45.7962 9.64H48.0042C48.9402 9.64 49.6602 8.896 49.6602 7.96C49.6602 7.072 48.9402 6.328 48.0042 6.328H45.8202L45.8442 4.504C45.8442 3.496 45.0762 2.824 44.1642 2.824C43.1802 2.824 42.4122 3.496 42.4122 4.504V6.328H42.1002C41.1642 6.328 40.4442 7.072 40.4442 7.96C40.4442 8.896 41.1642 9.64 42.1002 9.64H42.4122V14.272C42.4122 16.096 42.6282 17.272 43.3002 18.016C43.9242 18.712 44.8122 19 46.5162 19H47.9562C48.9162 19 49.6842 18.232 49.6842 17.272C49.6842 16.336 48.9162 15.568 47.9562 15.568ZM57.805 6.088C56.653 6.088 55.597 6.424 54.661 7.144V2.536C54.661 1.528 53.893 0.855999 52.957 0.855999C51.997 0.855999 51.229 1.528 51.229 2.536V12.448C51.229 16.336 54.181 19.24 57.805 19.24C61.429 19.24 64.357 16.312 64.357 12.64C64.357 9.016 61.429 6.088 57.805 6.088ZM57.877 15.88C56.125 15.88 54.661 14.464 54.661 12.64C54.661 10.864 56.125 9.448 57.877 9.448C59.677 9.448 61.093 10.864 61.093 12.64C61.093 14.464 59.677 15.88 57.877 15.88ZM77.1753 6.088C76.4073 6.088 75.7593 6.592 75.5433 7.288C74.5593 6.448 73.3833 6.088 72.1113 6.088C68.6553 6.088 65.7033 9.016 65.7033 12.64C65.7033 16.312 68.6553 19.24 72.1113 19.24C73.3353 19.24 74.4873 18.832 75.4713 17.896V18.064C75.4713 18.688 75.7833 19 76.4073 19H77.9913C78.5912 19 78.9033 18.688 78.9033 18.064V7.816C78.9033 6.856 78.1353 6.088 77.1753 6.088ZM72.2553 15.88C70.5033 15.88 69.0393 14.464 69.0393 12.64C69.0393 10.864 70.5033 9.448 72.2553 9.448C74.0553 9.448 75.4713 10.864 75.4713 12.64C75.4713 14.464 74.0553 15.88 72.2553 15.88ZM81.7268 18.064C81.7268 18.688 82.0388 19 82.6628 19H84.2468C84.8468 19 85.1588 18.688 85.1588 18.064V2.584C85.1588 1.624 84.3908 0.855999 83.4308 0.855999C82.4948 0.855999 81.7268 1.624 81.7268 2.584V18.064ZM87.844 18.064C87.844 18.688 88.156 19 88.78 19H90.364C90.964 19 91.276 18.688 91.276 18.064V2.584C91.276 1.624 90.508 0.855999 89.548 0.855999C88.612 0.855999 87.844 1.624 87.844 2.584V18.064ZM111.936 9.664L108.216 9.64C107.184 9.64 106.368 10.384 106.368 11.416C106.368 12.472 107.184 13.192 108.216 13.216L110.04 13.24V15.496C109.56 15.712 108.96 15.88 107.472 15.88C104.184 15.88 102.192 13.72 102.192 10.72C102.192 7.72 103.92 5.56 106.968 5.56C108.792 5.56 109.512 6.328 110.592 7.048C110.88 7.24 111.24 7.408 111.648 7.408C112.536 7.408 113.328 6.712 113.328 5.728C113.328 5.344 113.16 4.96 112.848 4.576C111.816 3.304 109.992 2.2 107.016 2.2C101.544 2.2 98.3763 5.776 98.3763 10.696C98.3763 15.64 101.808 19.24 107.04 19.24C110.808 19.24 113.904 18.16 113.904 16.168V11.536C113.904 10.288 113.016 9.664 111.936 9.664ZM126.91 6.088C126.142 6.088 125.494 6.592 125.278 7.288C124.294 6.448 123.118 6.088 121.846 6.088C118.39 6.088 115.438 9.016 115.438 12.64C115.438 16.312 118.39 19.24 121.846 19.24C123.07 19.24 124.222 18.832 125.206 17.896V18.064C125.206 18.688 125.518 19 126.142 19H127.726C128.326 19 128.638 18.688 128.638 18.064V7.816C128.638 6.856 127.87 6.088 126.91 6.088ZM121.99 15.88C120.238 15.88 118.774 14.464 118.774 12.64C118.774 10.864 120.238 9.448 121.99 9.448C123.79 9.448 125.206 10.864 125.206 12.64C125.206 14.464 123.79 15.88 121.99 15.88ZM146.629 6.088C144.949 6.088 143.509 6.664 142.501 7.624C141.709 6.832 140.629 6.088 138.757 6.088C137.005 6.088 135.805 6.736 135.037 7.6C134.941 6.736 134.221 6.088 133.333 6.088C132.397 6.088 131.629 6.856 131.629 7.816V18.064C131.629 18.688 131.941 19 132.565 19H134.149C134.749 19 135.061 18.688 135.061 18.064V11.872C135.061 10.264 136.093 9.376 137.461 9.376C138.853 9.376 139.837 10.264 139.837 11.872V18.064C139.837 18.688 140.149 19 140.773 19H142.357C142.957 19 143.269 18.688 143.269 18.064V11.824C143.269 10.216 144.301 9.376 145.669 9.376C147.061 9.376 148.045 10.264 148.045 11.872V18.064C148.045 18.688 148.357 19 148.981 19H150.565C151.165 19 151.477 18.688 151.477 18.064V10.864C151.477 8.128 149.821 6.088 146.629 6.088ZM166.604 12.16C166.604 9.16 163.676 6.088 160.124 6.088C156.332 6.088 153.524 9.064 153.524 12.712C153.524 16.552 156.404 19.24 160.508 19.24C161.852 19.24 163.628 18.976 164.732 18.352C165.428 17.968 165.788 17.464 165.788 16.816C165.788 15.904 165.068 15.256 164.252 15.256C163.892 15.256 163.58 15.376 163.292 15.544C162.716 15.88 161.804 16.216 160.676 16.216C158.9 16.216 157.436 15.376 157.004 14.08H165.212C165.932 14.08 166.604 13.528 166.604 12.16ZM156.932 11.608C157.22 10.336 158.492 9.256 160.076 9.256C161.66 9.256 162.908 10.336 163.196 11.608H156.932Z" fill="#ED1C24"/>
</svg>
