<svg width="140" height="17" viewBox="0 0 140 17" fill="none" xmlns="http://www.w3.org/2000/svg">
<path d="M9.22 5.2C10.1 5.2 10.82 4.58 10.82 3.7C10.82 2.82 10.1 2.2 9.22 2.2H2.4H2.38C1.52 2.2 0.8 2.72 0.8 3.76V15.32C0.8 15.74 1.06 16 1.48 16H3.36C3.76 16 4.02 15.74 4.02 15.32V10.9H8.32C9.2 10.9 9.92 10.28 9.92 9.4C9.92 8.52 9.2 7.9 8.32 7.9H4.02V5.2H9.22ZM16.3677 16.2C19.3877 16.2 21.8277 13.76 21.8277 10.7C21.8277 7.68 19.3877 5.24 16.3677 5.24C13.3477 5.24 10.9077 7.68 10.9077 10.7C10.9077 13.76 13.3477 16.2 16.3677 16.2ZM16.3677 13.4C14.9077 13.4 13.6877 12.22 13.6877 10.7C13.6877 9.22 14.9077 8.04 16.3677 8.04C17.8677 8.04 19.0477 9.22 19.0477 10.7C19.0477 12.22 17.8677 13.4 16.3677 13.4ZM28.3989 16.2C31.4189 16.2 33.8589 13.76 33.8589 10.7C33.8589 7.68 31.4189 5.24 28.3989 5.24C25.3789 5.24 22.9389 7.68 22.9389 10.7C22.9389 13.76 25.3789 16.2 28.3989 16.2ZM28.3989 13.4C26.9389 13.4 25.7189 12.22 25.7189 10.7C25.7189 9.22 26.9389 8.04 28.3989 8.04C29.8989 8.04 31.0789 9.22 31.0789 10.7C31.0789 12.22 29.8989 13.4 28.3989 13.4ZM40.6302 13.14H40.0702C39.2502 13.14 38.8102 12.88 38.8102 11.86L38.8302 8.2H40.6702C41.4502 8.2 42.0502 7.58 42.0502 6.8C42.0502 6.06 41.4502 5.44 40.6702 5.44H38.8502L38.8702 3.92C38.8702 3.08 38.2302 2.52 37.4702 2.52C36.6502 2.52 36.0102 3.08 36.0102 3.92V5.44H35.7502C34.9702 5.44 34.3702 6.06 34.3702 6.8C34.3702 7.58 34.9702 8.2 35.7502 8.2H36.0102V12.06C36.0102 13.58 36.1902 14.56 36.7502 15.18C37.2702 15.76 38.0102 16 39.4302 16H40.6302C41.4302 16 42.0702 15.36 42.0702 14.56C42.0702 13.78 41.4302 13.14 40.6302 13.14ZM48.8375 5.24C47.8775 5.24 46.9975 5.52 46.2175 6.12V2.28C46.2175 1.44 45.5775 0.879999 44.7975 0.879999C43.9975 0.879999 43.3575 1.44 43.3575 2.28V10.54C43.3575 13.78 45.8175 16.2 48.8375 16.2C51.8575 16.2 54.2975 13.76 54.2975 10.7C54.2975 7.68 51.8575 5.24 48.8375 5.24ZM48.8975 13.4C47.4375 13.4 46.2175 12.22 46.2175 10.7C46.2175 9.22 47.4375 8.04 48.8975 8.04C50.3975 8.04 51.5775 9.22 51.5775 10.7C51.5775 12.22 50.3975 13.4 48.8975 13.4ZM64.9794 5.24C64.3394 5.24 63.7994 5.66 63.6194 6.24C62.7994 5.54 61.8194 5.24 60.7594 5.24C57.8794 5.24 55.4194 7.68 55.4194 10.7C55.4194 13.76 57.8794 16.2 60.7594 16.2C61.7794 16.2 62.7394 15.86 63.5594 15.08V15.22C63.5594 15.74 63.8194 16 64.3394 16H65.6594C66.1594 16 66.4194 15.74 66.4194 15.22V6.68C66.4194 5.88 65.7794 5.24 64.9794 5.24ZM60.8794 13.4C59.4194 13.4 58.1994 12.22 58.1994 10.7C58.1994 9.22 59.4194 8.04 60.8794 8.04C62.3794 8.04 63.5594 9.22 63.5594 10.7C63.5594 12.22 62.3794 13.4 60.8794 13.4ZM68.7723 15.22C68.7723 15.74 69.0323 16 69.5523 16H70.8723C71.3723 16 71.6323 15.74 71.6323 15.22V2.32C71.6323 1.52 70.9923 0.879999 70.1923 0.879999C69.4123 0.879999 68.7723 1.52 68.7723 2.32V15.22ZM73.87 15.22C73.87 15.74 74.13 16 74.65 16H75.97C76.47 16 76.73 15.74 76.73 15.22V2.32C76.73 1.52 76.09 0.879999 75.29 0.879999C74.51 0.879999 73.87 1.52 73.87 2.32V15.22ZM93.9469 8.22L90.8469 8.2C89.9869 8.2 89.3069 8.82 89.3069 9.68C89.3069 10.56 89.9869 11.16 90.8469 11.18L92.3669 11.2V13.08C91.9669 13.26 91.4669 13.4 90.2269 13.4C87.4869 13.4 85.8269 11.6 85.8269 9.1C85.8269 6.6 87.2669 4.8 89.8069 4.8C91.3269 4.8 91.9269 5.44 92.8269 6.04C93.0669 6.2 93.3669 6.34 93.7069 6.34C94.4469 6.34 95.1069 5.76 95.1069 4.94C95.1069 4.62 94.9669 4.3 94.7069 3.98C93.8469 2.92 92.3269 2 89.8469 2C85.2869 2 82.6469 4.98 82.6469 9.08C82.6469 13.2 85.5069 16.2 89.8669 16.2C93.0069 16.2 95.5869 15.3 95.5869 13.64V9.78C95.5869 8.74 94.8469 8.22 93.9469 8.22ZM106.425 5.24C105.785 5.24 105.245 5.66 105.065 6.24C104.245 5.54 103.265 5.24 102.205 5.24C99.3247 5.24 96.8647 7.68 96.8647 10.7C96.8647 13.76 99.3247 16.2 102.205 16.2C103.225 16.2 104.185 15.86 105.005 15.08V15.22C105.005 15.74 105.265 16 105.785 16H107.105C107.605 16 107.865 15.74 107.865 15.22V6.68C107.865 5.88 107.225 5.24 106.425 5.24ZM102.325 13.4C100.865 13.4 99.6447 12.22 99.6447 10.7C99.6447 9.22 100.865 8.04 102.325 8.04C103.825 8.04 105.005 9.22 105.005 10.7C105.005 12.22 103.825 13.4 102.325 13.4ZM122.858 5.24C121.458 5.24 120.258 5.72 119.418 6.52C118.758 5.86 117.858 5.24 116.298 5.24C114.838 5.24 113.838 5.78 113.198 6.5C113.118 5.78 112.518 5.24 111.778 5.24C110.998 5.24 110.358 5.88 110.358 6.68V15.22C110.358 15.74 110.618 16 111.138 16H112.458C112.958 16 113.218 15.74 113.218 15.22V10.06C113.218 8.72 114.078 7.98 115.218 7.98C116.378 7.98 117.198 8.72 117.198 10.06V15.22C117.198 15.74 117.458 16 117.978 16H119.298C119.798 16 120.058 15.74 120.058 15.22V10.02C120.058 8.68 120.918 7.98 122.058 7.98C123.218 7.98 124.038 8.72 124.038 10.06V15.22C124.038 15.74 124.298 16 124.818 16H126.138C126.638 16 126.898 15.74 126.898 15.22V9.22C126.898 6.94 125.518 5.24 122.858 5.24ZM139.503 10.3C139.503 7.8 137.063 5.24 134.103 5.24C130.943 5.24 128.603 7.72 128.603 10.76C128.603 13.96 131.003 16.2 134.423 16.2C135.543 16.2 137.023 15.98 137.943 15.46C138.523 15.14 138.823 14.72 138.823 14.18C138.823 13.42 138.223 12.88 137.543 12.88C137.243 12.88 136.983 12.98 136.743 13.12C136.263 13.4 135.503 13.68 134.563 13.68C133.083 13.68 131.863 12.98 131.503 11.9H138.343C138.943 11.9 139.503 11.44 139.503 10.3ZM131.443 9.84C131.683 8.78 132.743 7.88 134.063 7.88C135.383 7.88 136.423 8.78 136.663 9.84H131.443Z" fill="white"/>
</svg>
