<svg width="122" height="15" viewBox="0 0 122 15" fill="none" xmlns="http://www.w3.org/2000/svg">
<path d="M5.03053 0.426471H1.69053V0.446471C0.810527 0.446471 0.0905274 0.966472 0.0905274 2.02647V13.2265C0.0905274 13.9865 0.590527 14.4465 1.55053 14.4465H5.03053C9.51053 14.4465 12.3505 11.3065 12.3505 7.44647C12.3505 3.52647 9.53053 0.426471 5.03053 0.426471ZM5.17053 11.5065H3.29053V3.34647H5.05053C7.51053 3.34647 9.03053 5.14647 9.03053 7.36647C9.03053 9.52647 7.67053 11.5065 5.17053 11.5065ZM18.9785 14.6465C21.9985 14.6465 24.4385 12.2065 24.4385 9.14647C24.4385 6.12647 21.9985 3.68647 18.9785 3.68647C15.9585 3.68647 13.5185 6.12647 13.5185 9.14647C13.5185 12.2065 15.9585 14.6465 18.9785 14.6465ZM18.9785 11.8465C17.5185 11.8465 16.2985 10.6665 16.2985 9.14647C16.2985 7.66647 17.5185 6.48647 18.9785 6.48647C20.4785 6.48647 21.6585 7.66647 21.6585 9.14647C21.6585 10.6665 20.4785 11.8465 18.9785 11.8465ZM32.1097 3.68647C30.7297 3.68647 29.7297 4.22647 29.0897 4.94647C29.0097 4.22647 28.3897 3.68647 27.6697 3.68647C26.8897 3.68647 26.2497 4.32647 26.2497 5.12647V13.8865C26.2497 14.2465 26.4497 14.4465 26.8097 14.4465H28.5497C28.9097 14.4465 29.1097 14.2465 29.1097 13.8865V8.50647C29.1097 7.18647 29.9697 6.42647 31.1097 6.42647C32.2697 6.42647 33.0897 7.18647 33.0897 8.50647V13.8865C33.0897 14.2465 33.2897 14.4465 33.6497 14.4465H35.3897C35.7497 14.4465 35.9497 14.2465 35.9497 13.8865V7.66647C35.9497 5.38647 34.5697 3.68647 32.1097 3.68647ZM48.0383 0.426471H44.6983V0.446471C43.8183 0.446471 43.0983 0.966472 43.0983 2.02647V13.2265C43.0983 13.9865 43.5983 14.4465 44.5583 14.4465H48.0383C52.5183 14.4465 55.3583 11.3065 55.3583 7.44647C55.3583 3.52647 52.5383 0.426471 48.0383 0.426471ZM48.1783 11.5065H46.2983V3.34647H48.0583C50.5183 3.34647 52.0383 5.14647 52.0383 7.36647C52.0383 9.52647 50.6783 11.5065 48.1783 11.5065ZM61.9863 14.6465C65.0063 14.6465 67.4463 12.2065 67.4463 9.14647C67.4463 6.12647 65.0063 3.68647 61.9863 3.68647C58.9663 3.68647 56.5263 6.12647 56.5263 9.14647C56.5263 12.2065 58.9663 14.6465 61.9863 14.6465ZM61.9863 11.8465C60.5263 11.8465 59.3063 10.6665 59.3063 9.14647C59.3063 7.66647 60.5263 6.48647 61.9863 6.48647C63.4863 6.48647 64.6663 7.66647 64.6663 9.14647C64.6663 10.6665 63.4863 11.8465 61.9863 11.8465ZM75.1176 3.68647C73.7376 3.68647 72.7376 4.22647 72.0976 4.94647C72.0176 4.22647 71.3976 3.68647 70.6776 3.68647C69.8976 3.68647 69.2576 4.32647 69.2576 5.12647V13.8865C69.2576 14.2465 69.4576 14.4465 69.8176 14.4465H71.5576C71.9176 14.4465 72.1176 14.2465 72.1176 13.8865V8.50647C72.1176 7.18647 72.9776 6.42647 74.1176 6.42647C75.2776 6.42647 76.0976 7.18647 76.0976 8.50647V13.8865C76.0976 14.2465 76.2976 14.4465 76.6576 14.4465H78.3976C78.7576 14.4465 78.9576 14.2465 78.9576 13.8865V7.66647C78.9576 5.38647 77.5776 3.68647 75.1176 3.68647ZM91.0462 0.426471H87.7062V0.446471C86.8262 0.446471 86.1062 0.966472 86.1062 2.02647V13.2265C86.1062 13.9865 86.6062 14.4465 87.5662 14.4465H91.0462C95.5262 14.4465 98.3662 11.3065 98.3662 7.44647C98.3662 3.52647 95.5462 0.426471 91.0462 0.426471ZM91.1862 11.5065H89.3062V3.34647H91.0662C93.5262 3.34647 95.0462 5.14647 95.0462 7.36647C95.0462 9.52647 93.6862 11.5065 91.1862 11.5065ZM104.994 14.6465C108.014 14.6465 110.454 12.2065 110.454 9.14647C110.454 6.12647 108.014 3.68647 104.994 3.68647C101.974 3.68647 99.5341 6.12647 99.5341 9.14647C99.5341 12.2065 101.974 14.6465 104.994 14.6465ZM104.994 11.8465C103.534 11.8465 102.314 10.6665 102.314 9.14647C102.314 7.66647 103.534 6.48647 104.994 6.48647C106.494 6.48647 107.674 7.66647 107.674 9.14647C107.674 10.6665 106.494 11.8465 104.994 11.8465ZM118.125 3.68647C116.745 3.68647 115.745 4.22647 115.105 4.94647C115.025 4.22647 114.405 3.68647 113.685 3.68647C112.905 3.68647 112.265 4.32647 112.265 5.12647V13.8865C112.265 14.2465 112.465 14.4465 112.825 14.4465H114.565C114.925 14.4465 115.125 14.2465 115.125 13.8865V8.50647C115.125 7.18647 115.985 6.42647 117.125 6.42647C118.285 6.42647 119.105 7.18647 119.105 8.50647V13.8865C119.105 14.2465 119.305 14.4465 119.665 14.4465H121.405C121.765 14.4465 121.965 14.2465 121.965 13.8865V7.66647C121.965 5.38647 120.585 3.68647 118.125 3.68647Z" fill="white"/>
</svg>
