<svg width="99" height="11" viewBox="0 0 99 11" fill="none" xmlns="http://www.w3.org/2000/svg">
<path d="M5.90049 7.95163H2.54049V1.30163C2.54049 0.685628 2.02249 0.181628 1.40649 0.181628C0.790489 0.181628 0.286489 0.685628 0.286489 1.30163V9.12763C0.286489 9.65963 0.720489 9.98163 1.22449 9.98163H5.90049C6.55849 9.98163 7.00649 9.51963 7.00649 8.95963C7.00649 8.39963 6.55849 7.95163 5.90049 7.95163ZM14.3153 7.88163H10.6753V6.21563H13.6853C14.3013 6.21563 14.8053 5.78163 14.8053 5.16563C14.8053 4.54963 14.3013 4.11563 13.6853 4.11563H10.6753V2.42163H14.3153C14.9313 2.42163 15.4353 1.98763 15.4353 1.37163C15.4353 0.755628 14.9313 0.321628 14.3153 0.321628H9.54125H9.52726C8.92525 0.321628 8.42125 0.685628 8.42125 1.41363V9.12763C8.42125 9.65963 8.85525 9.98163 9.35925 9.98163H14.3153C14.9313 9.98163 15.4353 9.54763 15.4353 8.93163C15.4353 8.31563 14.9313 7.88163 14.3153 7.88163ZM25.3642 9.49163L21.5982 0.671628C21.4162 0.237628 20.9962 0.0136282 20.6042 0.0136282C20.1142 0.0136282 19.7502 0.335628 19.6102 0.671628L15.8302 9.49163C15.6902 9.82763 15.9842 9.98163 16.2362 9.98163H17.4542C17.7622 9.98163 18.0142 9.84163 18.1402 9.54763C18.3502 9.04363 18.5602 8.56763 18.7562 8.09163H22.4382C22.6482 8.60963 22.8582 9.08563 23.0542 9.54763C23.1802 9.84163 23.4322 9.98163 23.6842 9.98163H24.9582C25.2102 9.98163 25.5042 9.82763 25.3642 9.49163ZM19.5122 6.22963C19.8902 5.29163 20.2402 4.36763 20.6042 3.34563C20.9542 4.32563 21.3322 5.30563 21.6962 6.22963H19.5122ZM33.9815 8.31563L32.6375 6.10363C33.5615 5.48763 34.1915 4.47963 34.1915 3.48563C34.1915 1.56763 32.7495 0.181628 30.7475 0.181628H27.7935C27.1775 0.181628 26.6595 0.685628 26.6595 1.30163V9.50563C26.6595 9.79963 26.8415 9.98163 27.1355 9.98163H28.4515C28.7315 9.98163 28.9135 9.79963 28.9135 9.50563V6.67763H30.2295L32.1615 9.64563C32.3715 9.96763 32.7355 10.0656 33.0855 10.0656C33.7435 10.0656 34.2055 9.60363 34.2055 9.00163C34.2055 8.76363 34.1215 8.53963 33.9815 8.31563ZM30.7195 4.68963H28.9135V2.23963H30.7195C31.3915 2.23963 31.9375 2.78563 31.9375 3.45763C31.9375 4.14363 31.3915 4.68963 30.7195 4.68963ZM44.3701 1.30163C44.3701 0.685628 43.8521 0.181628 43.2361 0.181628C42.6201 0.181628 42.1161 0.685628 42.1161 1.30163L42.1581 5.99163L38.1821 0.839628C37.7761 0.321628 37.4541 0.181628 37.1041 0.181628C36.4741 0.181628 35.9701 0.713628 35.9701 1.32963V9.50563C35.9701 9.79963 36.1521 9.98163 36.4461 9.98163H37.7621C38.0421 9.98163 38.2241 9.79963 38.2241 9.50563L38.1681 4.19963L42.1861 9.49163C42.5081 9.91163 42.7601 9.98163 43.0261 9.98163H43.9361C44.2161 9.98163 44.3841 9.77163 44.3841 9.53363L44.3701 1.30163ZM60.5154 9.44963C60.1934 6.91563 59.8434 3.69563 59.4514 1.02163C59.3674 0.419628 58.8774 0.181628 58.3874 0.181628C57.8134 0.181628 57.4214 0.433628 57.1554 1.09163L54.8874 6.66363L52.6194 1.09163C52.3534 0.433628 51.8914 0.181628 51.4574 0.181628C50.8694 0.181628 50.3934 0.405628 50.2954 1.11963C50.0574 2.74363 49.5674 6.77563 49.2734 9.44963C49.2314 9.84163 49.5114 9.98163 49.7634 9.98163H50.8974C51.1494 9.98163 51.4294 9.84163 51.4714 9.44963L51.9754 4.73163L53.8934 9.46363C54.0474 9.84163 54.1874 9.98163 54.4814 9.98163H55.3074C55.5874 9.98163 55.7414 9.84163 55.8954 9.44963L57.7854 4.74563L58.3174 9.44963C58.3594 9.84163 58.6394 9.98163 58.8914 9.98163H60.0254C60.2774 9.98163 60.5574 9.84163 60.5154 9.44963ZM66.6522 10.1216C69.4382 10.1216 71.6642 7.95163 71.6642 5.16563C71.6642 2.36563 69.4382 0.195628 66.6522 0.195628C63.8522 0.195628 61.6262 2.36563 61.6262 5.16563C61.6262 7.95163 63.8522 10.1216 66.6522 10.1216ZM66.6382 7.99363C65.0702 7.99363 63.8662 6.74763 63.8662 5.16563C63.8662 3.59763 65.0702 2.32363 66.6382 2.32363C68.2062 2.32363 69.4242 3.59763 69.4242 5.16563C69.4242 6.74763 68.2062 7.99363 66.6382 7.99363ZM80.671 8.31563L79.327 6.10363C80.251 5.48763 80.881 4.47963 80.881 3.48563C80.881 1.56763 79.439 0.181628 77.437 0.181628H74.483C73.867 0.181628 73.349 0.685628 73.349 1.30163V9.50563C73.349 9.79963 73.531 9.98163 73.825 9.98163H75.141C75.421 9.98163 75.603 9.79963 75.603 9.50563V6.67763H76.919L78.851 9.64563C79.061 9.96763 79.425 10.0656 79.775 10.0656C80.433 10.0656 80.895 9.60363 80.895 9.00163C80.895 8.76363 80.811 8.53963 80.671 8.31563ZM77.409 4.68963H75.603V2.23963H77.409C78.081 2.23963 78.627 2.78563 78.627 3.45763C78.627 4.14363 78.081 4.68963 77.409 4.68963ZM88.5535 7.88163H84.9135V6.21563H87.9235C88.5395 6.21563 89.0435 5.78163 89.0435 5.16563C89.0435 4.54963 88.5395 4.11563 87.9235 4.11563H84.9135V2.42163H88.5535C89.1695 2.42163 89.6735 1.98763 89.6735 1.37163C89.6735 0.755628 89.1695 0.321628 88.5535 0.321628H83.7795H83.7655C83.1635 0.321628 82.6595 0.685628 82.6595 1.41363V9.12763C82.6595 9.65963 83.0935 9.98163 83.5975 9.98163H88.5535C89.1695 9.98163 89.6735 9.54763 89.6735 8.93163C89.6735 8.31563 89.1695 7.88163 88.5535 7.88163ZM98.5379 5.50163L95.2759 2.68763C95.1359 2.56163 94.9539 2.44963 94.6599 2.44963C94.1979 2.44963 93.8059 2.85563 93.8059 3.27563C93.8059 3.58363 93.9179 3.82163 94.1559 4.03163L96.7319 6.27163L94.1559 8.51163C93.9179 8.72163 93.8059 8.95963 93.8059 9.26763C93.8059 9.68763 94.1979 10.0936 94.6599 10.0936C94.9539 10.0936 95.1359 9.98163 95.2759 9.85563L98.5379 7.04163C98.8319 6.78963 98.9019 6.57963 98.9019 6.27163C98.9019 5.96363 98.8319 5.75363 98.5379 5.50163Z" fill="#ED1C24"/>
</svg>
