<svg width="268" height="25" viewBox="0 0 268 25" fill="none" xmlns="http://www.w3.org/2000/svg">
<path d="M19.472 18.088C18.92 13.744 18.32 8.224 17.648 3.64C17.504 2.608 16.664 2.2 15.824 2.2C14.84 2.2 14.168 2.632 13.712 3.76L9.824 13.312L5.936 3.76C5.48 2.632 4.688 2.2 3.944 2.2C2.936 2.2 2.12 2.584 1.952 3.808C1.544 6.592 0.704 13.504 0.2 18.088C0.128 18.76 0.608 19 1.04 19H2.984C3.416 19 3.896 18.76 3.968 18.088L4.832 10L8.12 18.112C8.384 18.76 8.624 19 9.128 19H10.544C11.024 19 11.288 18.76 11.552 18.088L14.792 10.024L15.704 18.088C15.776 18.76 16.256 19 16.688 19H18.632C19.064 19 19.544 18.76 19.472 18.088ZM29.9923 19.24C34.7682 19.24 38.5843 15.52 38.5843 10.744C38.5843 5.944 34.7682 2.224 29.9923 2.224C25.1923 2.224 21.3763 5.944 21.3763 10.744C21.3763 15.52 25.1923 19.24 29.9923 19.24ZM29.9683 15.592C27.2803 15.592 25.2163 13.456 25.2163 10.744C25.2163 8.056 27.2803 5.872 29.9683 5.872C32.6562 5.872 34.7443 8.056 34.7443 10.744C34.7443 13.456 32.6562 15.592 29.9683 15.592ZM55.7285 18.16L49.2725 3.04C48.9605 2.296 48.2405 1.912 47.5685 1.912C46.7285 1.912 46.1045 2.464 45.8645 3.04L39.3845 18.16C39.1445 18.736 39.6485 19 40.0805 19H42.1685C42.6965 19 43.1285 18.76 43.3445 18.256C43.7045 17.392 44.0645 16.576 44.4005 15.76H50.7125C51.0725 16.648 51.4325 17.464 51.7685 18.256C51.9845 18.76 52.4165 19 52.8485 19H55.0325C55.4645 19 55.9685 18.736 55.7285 18.16ZM45.6965 12.568C46.3445 10.96 46.9445 9.376 47.5685 7.624C48.1685 9.304 48.8165 10.984 49.4405 12.568H45.6965ZM67.1881 11.2C68.0041 11.2 68.6521 11.848 68.6521 12.64C68.6521 13.48 68.0041 14.128 67.1881 14.128H63.3481C62.5321 14.128 61.8841 13.48 61.8841 12.64C61.8841 11.848 62.5321 11.2 63.3481 11.2H67.1881ZM89.006 15.952L84.878 10.504L88.67 5.488C88.934 5.152 89.15 4.72 89.15 4.12C89.15 3.088 88.334 2.2 87.206 2.2C86.678 2.2 86.078 2.392 85.598 3.016L82.406 7.24L79.19 3.016C78.71 2.392 78.11 2.2 77.582 2.2C76.454 2.2 75.638 3.088 75.638 4.12C75.638 4.72 75.854 5.152 76.118 5.488L79.91 10.504L75.782 15.952C75.518 16.288 75.302 16.72 75.302 17.32C75.302 18.352 76.118 19.24 77.246 19.24C77.774 19.24 78.374 19.048 78.854 18.424L82.406 13.768L85.934 18.424C86.414 19.048 87.014 19.24 87.542 19.24C88.67 19.24 89.486 18.352 89.486 17.32C89.486 16.72 89.27 16.288 89.006 15.952ZM112.229 2.44H101.957C100.925 2.44 100.109 3.208 100.109 4.24C100.109 5.272 100.925 6.04 101.957 6.04H105.149V18.184C105.149 18.688 105.461 19 105.965 19H108.221C108.701 19 109.013 18.688 109.013 18.184V6.04H112.229C113.261 6.04 114.077 5.272 114.077 4.24C114.077 3.208 113.261 2.44 112.229 2.44ZM115.422 18.328V2.584C115.422 1.624 116.19 0.855999 117.126 0.855999C118.086 0.855999 118.854 1.624 118.854 2.584L118.878 7.192C119.742 6.496 120.918 6.088 122.19 6.088C125.166 6.088 127.062 8.272 127.062 11.824V18.328C127.062 18.76 126.822 19 126.39 19H124.302C123.87 19 123.63 18.76 123.63 18.328V11.872C123.63 10.456 122.646 9.376 121.254 9.376C119.886 9.376 118.854 10.456 118.854 11.872V18.328C118.854 18.76 118.614 19 118.182 19H116.094C115.662 19 115.422 18.76 115.422 18.328ZM142.174 12.16C142.174 9.16 139.246 6.088 135.694 6.088C131.902 6.088 129.094 9.064 129.094 12.712C129.094 16.552 131.974 19.24 136.078 19.24C137.422 19.24 139.198 18.976 140.302 18.352C140.998 17.968 141.358 17.464 141.358 16.816C141.358 15.904 140.638 15.256 139.822 15.256C139.462 15.256 139.15 15.376 138.862 15.544C138.286 15.88 137.374 16.216 136.246 16.216C134.47 16.216 133.006 15.376 132.574 14.08H140.782C141.502 14.08 142.174 13.528 142.174 12.16ZM132.502 11.608C132.79 10.336 134.062 9.256 135.646 9.256C137.23 9.256 138.478 10.336 138.766 11.608H132.502ZM155.992 15.688C157.048 15.688 157.576 15.184 157.576 14.416C157.576 13.528 156.88 13.168 155.464 12.664L153.424 11.944C150.544 10.936 149.296 9.28 149.271 7.528C149.2 4.48 151.48 2.224 155.704 2.224C157.312 2.224 159.328 2.656 160.528 3.424C161.247 3.88 161.608 4.456 161.608 5.128C161.608 6.112 160.84 6.88 159.88 6.88C158.92 6.88 158.248 6.496 157.456 6.232C156.784 6.016 155.872 5.776 155.176 5.776C154.192 5.776 153.688 6.352 153.688 7.024C153.688 7.816 154.336 8.296 155.656 8.752L158.104 9.616C161.056 10.648 161.872 12.376 161.896 13.84C161.944 16.744 159.736 19.24 155.152 19.24C153.592 19.24 151.384 18.76 149.944 18.016C148.936 17.488 148.528 16.84 148.528 16.144C148.528 15.16 149.296 14.392 150.256 14.392C151 14.392 151.984 14.92 153.256 15.232C154.12 15.448 155.2 15.688 155.992 15.688ZM174.108 6.088C173.172 6.088 172.404 6.856 172.404 7.816V13.216C172.404 14.8 171.372 15.712 170.004 15.712C168.612 15.712 167.628 14.8 167.628 13.216V7.816C167.628 6.856 166.86 6.088 165.9 6.088C164.964 6.088 164.196 6.856 164.196 7.816V14.224C164.196 16.96 165.852 19.24 168.804 19.24C170.46 19.24 171.636 18.424 172.404 17.536V18.328C172.404 18.76 172.644 19 173.076 19H175.164C175.596 19 175.836 18.76 175.836 18.328V7.816C175.836 6.856 175.068 6.088 174.108 6.088ZM185.039 6.088C181.415 6.088 178.463 8.992 178.463 12.88V22.792C178.463 23.8 179.231 24.472 180.191 24.472C181.127 24.472 181.895 23.8 181.895 22.792V18.184C182.831 18.904 183.887 19.24 185.039 19.24C188.663 19.24 191.591 16.312 191.591 12.688C191.591 9.016 188.663 6.088 185.039 6.088ZM185.111 15.88C183.359 15.88 181.895 14.464 181.895 12.688C181.895 10.864 183.359 9.448 185.111 9.448C186.911 9.448 188.327 10.864 188.327 12.688C188.327 14.464 186.911 15.88 185.111 15.88ZM206.018 12.16C206.018 9.16 203.09 6.088 199.538 6.088C195.746 6.088 192.938 9.064 192.938 12.712C192.938 16.552 195.818 19.24 199.922 19.24C201.266 19.24 203.042 18.976 204.146 18.352C204.842 17.968 205.202 17.464 205.202 16.816C205.202 15.904 204.482 15.256 203.666 15.256C203.306 15.256 202.994 15.376 202.706 15.544C202.13 15.88 201.218 16.216 200.09 16.216C198.314 16.216 196.85 15.376 196.418 14.08H204.626C205.346 14.08 206.018 13.528 206.018 12.16ZM196.346 11.608C196.634 10.336 197.906 9.256 199.49 9.256C201.074 9.256 202.322 10.336 202.61 11.608H196.346ZM215.396 9.496C216.38 9.496 217.052 8.704 217.052 7.84C217.052 7.12 216.644 6.52 215.996 6.256C215.588 6.088 215.132 6.088 214.556 6.088C213.164 6.088 212.084 6.232 210.812 7.024C208.916 8.176 207.596 10.312 207.596 12.76V18.328C207.596 18.76 207.836 19 208.268 19H210.356C210.788 19 211.028 18.76 211.028 18.328V12.736C211.028 10.792 212.54 9.448 214.196 9.448C214.652 9.448 214.988 9.496 215.396 9.496ZM238.518 18.16L232.062 3.04C231.75 2.296 231.03 1.912 230.358 1.912C229.518 1.912 228.894 2.464 228.654 3.04L222.174 18.16C221.934 18.736 222.438 19 222.87 19H224.958C225.486 19 225.918 18.76 226.134 18.256C226.494 17.392 226.854 16.576 227.19 15.76H233.502C233.862 16.648 234.222 17.464 234.558 18.256C234.774 18.76 235.206 19 235.638 19H237.822C238.254 19 238.758 18.736 238.518 18.16ZM228.486 12.568C229.134 10.96 229.734 9.376 230.358 7.624C230.958 9.304 231.606 10.984 232.23 12.568H228.486ZM246.258 6.088C242.634 6.088 239.682 8.992 239.682 12.88V22.792C239.682 23.8 240.45 24.472 241.41 24.472C242.346 24.472 243.114 23.8 243.114 22.792V18.184C244.05 18.904 245.106 19.24 246.258 19.24C249.882 19.24 252.81 16.312 252.81 12.688C252.81 9.016 249.882 6.088 246.258 6.088ZM246.33 15.88C244.578 15.88 243.114 14.464 243.114 12.688C243.114 10.864 244.578 9.448 246.33 9.448C248.13 9.448 249.546 10.864 249.546 12.688C249.546 14.464 248.13 15.88 246.33 15.88ZM261.164 6.088C257.54 6.088 254.588 8.992 254.588 12.88V22.792C254.588 23.8 255.356 24.472 256.316 24.472C257.252 24.472 258.02 23.8 258.02 22.792V18.184C258.956 18.904 260.012 19.24 261.164 19.24C264.788 19.24 267.716 16.312 267.716 12.688C267.716 9.016 264.788 6.088 261.164 6.088ZM261.236 15.88C259.484 15.88 258.02 14.464 258.02 12.688C258.02 10.864 259.484 9.448 261.236 9.448C263.036 9.448 264.452 10.864 264.452 12.688C264.452 14.464 263.036 15.88 261.236 15.88Z" fill="#ED1C24"/>
</svg>
