<svg width="63" height="15" viewBox="0 0 63 15" fill="none" xmlns="http://www.w3.org/2000/svg">
<path d="M16.1486 13.703C15.6886 10.083 15.1886 5.48304 14.6286 1.66304C14.5086 0.803043 13.8086 0.463042 13.1086 0.463042C12.2886 0.463042 11.7286 0.823042 11.3486 1.76304L8.10862 9.72304L4.86862 1.76304C4.48862 0.823042 3.82862 0.463042 3.20862 0.463042C2.36862 0.463042 1.68862 0.783043 1.54862 1.80304C1.20862 4.12304 0.508623 9.88304 0.0886231 13.703C0.0286231 14.263 0.428623 14.463 0.788623 14.463H2.40862C2.76862 14.463 3.16862 14.263 3.22862 13.703L3.94862 6.96304L6.68862 13.723C6.90862 14.263 7.10862 14.463 7.52862 14.463H8.70862C9.10862 14.463 9.32862 14.263 9.54862 13.703L12.2486 6.98304L13.0086 13.703C13.0686 14.263 13.4686 14.463 13.8286 14.463H15.4486C15.8086 14.463 16.2086 14.263 16.1486 13.703ZM24.9155 14.663C28.8955 14.663 32.0755 11.563 32.0755 7.58304C32.0755 3.58304 28.8955 0.483042 24.9155 0.483042C20.9155 0.483042 17.7355 3.58304 17.7355 7.58304C17.7355 11.563 20.9155 14.663 24.9155 14.663ZM24.8955 11.623C22.6555 11.623 20.9355 9.84304 20.9355 7.58304C20.9355 5.34304 22.6555 3.52304 24.8955 3.52304C27.1355 3.52304 28.8755 5.34304 28.8755 7.58304C28.8755 9.84304 27.1355 11.623 24.8955 11.623ZM46.3624 13.763L40.9824 1.16304C40.7224 0.543042 40.1224 0.223043 39.5624 0.223043C38.8624 0.223043 38.3424 0.683043 38.1424 1.16304L32.7424 13.763C32.5424 14.243 32.9624 14.463 33.3224 14.463H35.0624C35.5024 14.463 35.8624 14.263 36.0424 13.843C36.3424 13.123 36.6424 12.443 36.9224 11.763H42.1824C42.4824 12.503 42.7824 13.183 43.0624 13.843C43.2424 14.263 43.6024 14.463 43.9624 14.463H45.7824C46.1424 14.463 46.5624 14.243 46.3624 13.763ZM38.0024 9.10304C38.5424 7.76304 39.0424 6.44304 39.5624 4.98304C40.0624 6.38304 40.6024 7.78304 41.1224 9.10304H38.0024ZM62.4921 11.923L59.0521 7.38304L62.2121 3.20304C62.4321 2.92304 62.6121 2.56304 62.6121 2.06304C62.6121 1.20304 61.9321 0.463042 60.9921 0.463042C60.5521 0.463042 60.0521 0.623043 59.6521 1.14304L56.9921 4.66304L54.3121 1.14304C53.9121 0.623043 53.4121 0.463042 52.9721 0.463042C52.0321 0.463042 51.3521 1.20304 51.3521 2.06304C51.3521 2.56304 51.5321 2.92304 51.7521 3.20304L54.9121 7.38304L51.4721 11.923C51.2521 12.203 51.0721 12.563 51.0721 13.063C51.0721 13.923 51.7521 14.663 52.6921 14.663C53.1321 14.663 53.6321 14.503 54.0321 13.983L56.9921 10.103L59.9321 13.983C60.3321 14.503 60.8321 14.663 61.2721 14.663C62.2121 14.663 62.8921 13.923 62.8921 13.063C62.8921 12.563 62.7121 12.203 62.4921 11.923Z" fill="white"/>
</svg>
