<svg width="134" height="21" viewBox="0 0 134 21" fill="none" xmlns="http://www.w3.org/2000/svg">
<path d="M17.06 15.24C16.6 11.62 16.1 7.02 15.54 3.2C15.42 2.34 14.72 2 14.02 2C13.2 2 12.64 2.36 12.26 3.3L9.02 11.26L5.78 3.3C5.4 2.36 4.74 2 4.12 2C3.28 2 2.6 2.32 2.46 3.34C2.12 5.66 1.42 11.42 1 15.24C0.94 15.8 1.34 16 1.7 16H3.32C3.68 16 4.08 15.8 4.14 15.24L4.86 8.5L7.6 15.26C7.82 15.8 8.02 16 8.44 16H9.62C10.02 16 10.24 15.8 10.46 15.24L13.16 8.52L13.92 15.24C13.98 15.8 14.38 16 14.74 16H16.36C16.72 16 17.12 15.8 17.06 15.24ZM24.0669 16.2C27.0869 16.2 29.5269 13.76 29.5269 10.7C29.5269 7.68 27.0869 5.24 24.0669 5.24C21.0469 5.24 18.6069 7.68 18.6069 10.7C18.6069 13.76 21.0469 16.2 24.0669 16.2ZM24.0669 13.4C22.6069 13.4 21.3869 12.22 21.3869 10.7C21.3869 9.22 22.6069 8.04 24.0669 8.04C25.5669 8.04 26.7469 9.22 26.7469 10.7C26.7469 12.22 25.5669 13.4 24.0669 13.4ZM36.4781 5.24C35.5181 5.24 34.6381 5.52 33.8581 6.12V2.28C33.8581 1.44 33.2181 0.879999 32.4381 0.879999C31.6381 0.879999 30.9981 1.44 30.9981 2.28V10.54C30.9981 13.78 33.4581 16.2 36.4781 16.2C39.4981 16.2 41.9381 13.76 41.9381 10.7C41.9381 7.68 39.4981 5.24 36.4781 5.24ZM36.5381 13.4C35.0781 13.4 33.8581 12.22 33.8581 10.7C33.8581 9.22 35.0781 8.04 36.5381 8.04C38.0381 8.04 39.2181 9.22 39.2181 10.7C39.2181 12.22 38.0381 13.4 36.5381 13.4ZM45.22 4.16C46.12 4.16 46.86 3.42 46.86 2.5C46.86 1.6 46.12 0.859999 45.22 0.859999C44.3 0.859999 43.56 1.6 43.56 2.5C43.56 3.42 44.3 4.16 45.22 4.16ZM46.66 6.68C46.66 5.88 46.02 5.24 45.22 5.24C44.44 5.24 43.8 5.88 43.8 6.68V15.22C43.8 15.74 44.06 16 44.58 16H45.9C46.4 16 46.66 15.74 46.66 15.22V6.68ZM49.0692 15.22C49.0692 15.74 49.3292 16 49.8492 16H51.1692C51.6692 16 51.9292 15.74 51.9292 15.22V2.32C51.9292 1.52 51.2892 0.879999 50.4892 0.879999C49.7092 0.879999 49.0692 1.52 49.0692 2.32V15.22ZM64.5069 10.3C64.5069 7.8 62.0669 5.24 59.1069 5.24C55.9469 5.24 53.6069 7.72 53.6069 10.76C53.6069 13.96 56.0069 16.2 59.4269 16.2C60.5469 16.2 62.0269 15.98 62.9469 15.46C63.5269 15.14 63.8269 14.72 63.8269 14.18C63.8269 13.42 63.2269 12.88 62.5469 12.88C62.2469 12.88 61.9869 12.98 61.7469 13.12C61.2669 13.4 60.5069 13.68 59.5669 13.68C58.0869 13.68 56.8669 12.98 56.5069 11.9H63.3469C63.9469 11.9 64.5069 11.44 64.5069 10.3ZM56.4469 9.84C56.6869 8.78 57.7469 7.88 59.0669 7.88C60.3869 7.88 61.4269 8.78 61.6669 9.84H56.4469ZM86.1616 15.24C85.7016 11.62 85.2016 7.02 84.6416 3.2C84.5216 2.34 83.8216 2 83.1216 2C82.3016 2 81.7416 2.36 81.3616 3.3L78.1216 11.26L74.8816 3.3C74.5016 2.36 73.8416 2 73.2216 2C72.3816 2 71.7016 2.32 71.5616 3.34C71.2216 5.66 70.5216 11.42 70.1016 15.24C70.0416 15.8 70.4416 16 70.8016 16H72.4216C72.7816 16 73.1816 15.8 73.2416 15.24L73.9616 8.5L76.7016 15.26C76.9216 15.8 77.1216 16 77.5416 16H78.7216C79.1216 16 79.3416 15.8 79.5616 15.24L82.2616 8.52L83.0216 15.24C83.0816 15.8 83.4816 16 83.8416 16H85.4616C85.8216 16 86.2216 15.8 86.1616 15.24ZM93.1684 16.2C96.1884 16.2 98.6284 13.76 98.6284 10.7C98.6284 7.68 96.1884 5.24 93.1684 5.24C90.1484 5.24 87.7084 7.68 87.7084 10.7C87.7084 13.76 90.1484 16.2 93.1684 16.2ZM93.1684 13.4C91.7084 13.4 90.4884 12.22 90.4884 10.7C90.4884 9.22 91.7084 8.04 93.1684 8.04C94.6684 8.04 95.8484 9.22 95.8484 10.7C95.8484 12.22 94.6684 13.4 93.1684 13.4ZM106.3 5.24C104.92 5.24 103.92 5.78 103.28 6.5C103.2 5.78 102.58 5.24 101.86 5.24C101.08 5.24 100.44 5.88 100.44 6.68V15.44C100.44 15.8 100.64 16 101 16H102.74C103.1 16 103.3 15.8 103.3 15.44V10.06C103.3 8.74 104.16 7.98 105.3 7.98C106.46 7.98 107.28 8.74 107.28 10.06V15.44C107.28 15.8 107.48 16 107.84 16H109.58C109.94 16 110.14 15.8 110.14 15.44V9.22C110.14 6.94 108.76 5.24 106.3 5.24ZM122.749 10.3C122.749 7.8 120.309 5.24 117.349 5.24C114.189 5.24 111.849 7.72 111.849 10.76C111.849 13.96 114.249 16.2 117.669 16.2C118.789 16.2 120.269 15.98 121.189 15.46C121.769 15.14 122.069 14.72 122.069 14.18C122.069 13.42 121.469 12.88 120.789 12.88C120.489 12.88 120.229 12.98 119.989 13.12C119.509 13.4 118.749 13.68 117.809 13.68C116.329 13.68 115.109 12.98 114.749 11.9H121.589C122.189 11.9 122.749 11.44 122.749 10.3ZM114.689 9.84C114.929 8.78 115.989 7.88 117.309 7.88C118.629 7.88 119.669 8.78 119.909 9.84H114.689ZM132.005 5.24C131.385 5.24 130.785 5.64 130.505 6.38C129.845 8.08 129.185 9.76 128.545 11.46C127.905 9.76 127.245 8.08 126.585 6.38C126.305 5.64 125.705 5.24 125.085 5.24C124.205 5.24 123.545 5.98 123.545 6.78C123.545 7.08 123.625 7.34 123.725 7.54L127.045 15.08C126.725 15.8 126.365 16.44 125.845 16.92C125.605 17.14 125.225 17.34 124.665 17.34C123.885 17.34 123.245 17.98 123.245 18.76C123.245 19.54 123.885 20.2 125.025 20.2C125.425 20.2 125.885 20.12 126.385 19.92C127.765 19.34 128.705 18.1 129.345 16.68L129.965 15.3H129.945L130.005 15.18L133.365 7.54C133.465 7.34 133.545 7.08 133.545 6.78C133.545 5.98 132.885 5.24 132.005 5.24Z" fill="white"/>
</svg>
