<svg width="267" height="25" viewBox="0 0 267 25" fill="none" xmlns="http://www.w3.org/2000/svg">
<path d="M19.472 18.088C18.92 13.744 18.32 8.224 17.648 3.64C17.504 2.608 16.664 2.2 15.824 2.2C14.84 2.2 14.168 2.632 13.712 3.76L9.824 13.312L5.936 3.76C5.48 2.632 4.688 2.2 3.944 2.2C2.936 2.2 2.12 2.584 1.952 3.808C1.544 6.592 0.704 13.504 0.2 18.088C0.128 18.76 0.608 19 1.04 19H2.984C3.416 19 3.896 18.76 3.968 18.088L4.832 10L8.12 18.112C8.384 18.76 8.624 19 9.128 19H10.544C11.024 19 11.288 18.76 11.552 18.088L14.792 10.024L15.704 18.088C15.776 18.76 16.256 19 16.688 19H18.632C19.064 19 19.544 18.76 19.472 18.088ZM27.8803 19.24C31.5043 19.24 34.4323 16.312 34.4323 12.64C34.4323 9.016 31.5043 6.088 27.8803 6.088C24.2563 6.088 21.3283 9.016 21.3283 12.64C21.3283 16.312 24.2563 19.24 27.8803 19.24ZM27.8803 15.88C26.1283 15.88 24.6643 14.464 24.6643 12.64C24.6643 10.864 26.1283 9.448 27.8803 9.448C29.6803 9.448 31.0963 10.864 31.0963 12.64C31.0963 14.464 29.6803 15.88 27.8803 15.88ZM42.7738 6.088C41.6218 6.088 40.5658 6.424 39.6298 7.144V2.536C39.6298 1.528 38.8618 0.855999 37.9258 0.855999C36.9658 0.855999 36.1978 1.528 36.1978 2.536V12.448C36.1978 16.336 39.1498 19.24 42.7738 19.24C46.3978 19.24 49.3258 16.312 49.3258 12.64C49.3258 9.016 46.3978 6.088 42.7738 6.088ZM42.8458 15.88C41.0938 15.88 39.6298 14.464 39.6298 12.64C39.6298 10.864 41.0938 9.448 42.8458 9.448C44.6458 9.448 46.0618 10.864 46.0618 12.64C46.0618 14.464 44.6458 15.88 42.8458 15.88ZM53.264 4.792C54.344 4.792 55.232 3.904 55.232 2.8C55.232 1.72 54.344 0.831999 53.264 0.831999C52.16 0.831999 51.272 1.72 51.272 2.8C51.272 3.904 52.16 4.792 53.264 4.792ZM54.992 7.816C54.992 6.856 54.224 6.088 53.264 6.088C52.328 6.088 51.56 6.856 51.56 7.816V18.064C51.56 18.688 51.872 19 52.496 19H54.08C54.68 19 54.992 18.688 54.992 18.064V7.816ZM57.8831 18.064C57.8831 18.688 58.1951 19 58.8191 19H60.4031C61.0031 19 61.3151 18.688 61.3151 18.064V2.584C61.3151 1.624 60.5471 0.855999 59.5871 0.855999C58.6511 0.855999 57.8831 1.624 57.8831 2.584V18.064ZM76.4083 12.16C76.4083 9.16 73.4803 6.088 69.9283 6.088C66.1363 6.088 63.3283 9.064 63.3283 12.712C63.3283 16.552 66.2083 19.24 70.3123 19.24C71.6563 19.24 73.4323 18.976 74.5363 18.352C75.2323 17.968 75.5923 17.464 75.5923 16.816C75.5923 15.904 74.8723 15.256 74.0563 15.256C73.6963 15.256 73.3843 15.376 73.0963 15.544C72.5203 15.88 71.6083 16.216 70.4803 16.216C68.7043 16.216 67.2403 15.376 66.8083 14.08H75.0163C75.7363 14.08 76.4083 13.528 76.4083 12.16ZM66.7363 11.608C67.0243 10.336 68.2963 9.256 69.8803 9.256C71.4643 9.256 72.7123 10.336 73.0003 11.608H66.7363ZM102.394 18.088C101.842 13.744 101.242 8.224 100.57 3.64C100.426 2.608 99.5859 2.2 98.7459 2.2C97.7619 2.2 97.0899 2.632 96.6339 3.76L92.7459 13.312L88.8579 3.76C88.4019 2.632 87.6099 2.2 86.8659 2.2C85.8579 2.2 85.0419 2.584 84.8739 3.808C84.4659 6.592 83.6259 13.504 83.1219 18.088C83.0499 18.76 83.5299 19 83.9619 19H85.9059C86.3379 19 86.8179 18.76 86.8899 18.088L87.7539 10L91.0419 18.112C91.3059 18.76 91.5459 19 92.0499 19H93.4659C93.9459 19 94.2099 18.76 94.4739 18.088L97.7139 10.024L98.6259 18.088C98.6979 18.76 99.1779 19 99.6099 19H101.554C101.986 19 102.466 18.76 102.394 18.088ZM110.802 19.24C114.426 19.24 117.354 16.312 117.354 12.64C117.354 9.016 114.426 6.088 110.802 6.088C107.178 6.088 104.25 9.016 104.25 12.64C104.25 16.312 107.178 19.24 110.802 19.24ZM110.802 15.88C109.05 15.88 107.586 14.464 107.586 12.64C107.586 10.864 109.05 9.448 110.802 9.448C112.602 9.448 114.018 10.864 114.018 12.64C114.018 14.464 112.602 15.88 110.802 15.88ZM126.56 6.088C124.904 6.088 123.704 6.736 122.936 7.6C122.84 6.736 122.096 6.088 121.232 6.088C120.296 6.088 119.528 6.856 119.528 7.816V18.328C119.528 18.76 119.768 19 120.2 19H122.288C122.72 19 122.96 18.76 122.96 18.328V11.872C122.96 10.288 123.992 9.376 125.36 9.376C126.752 9.376 127.736 10.288 127.736 11.872V18.328C127.736 18.76 127.976 19 128.408 19H130.496C130.928 19 131.168 18.76 131.168 18.328V10.864C131.168 8.128 129.512 6.088 126.56 6.088ZM146.299 12.16C146.299 9.16 143.371 6.088 139.819 6.088C136.027 6.088 133.219 9.064 133.219 12.712C133.219 16.552 136.099 19.24 140.203 19.24C141.547 19.24 143.323 18.976 144.427 18.352C145.123 17.968 145.483 17.464 145.483 16.816C145.483 15.904 144.763 15.256 143.947 15.256C143.587 15.256 143.275 15.376 142.987 15.544C142.411 15.88 141.499 16.216 140.371 16.216C138.595 16.216 137.131 15.376 136.699 14.08H144.907C145.627 14.08 146.299 13.528 146.299 12.16ZM136.627 11.608C136.915 10.336 138.187 9.256 139.771 9.256C141.355 9.256 142.603 10.336 142.891 11.608H136.627ZM157.405 6.088C156.661 6.088 155.941 6.568 155.605 7.456C154.813 9.496 154.021 11.512 153.253 13.552C152.485 11.512 151.693 9.496 150.901 7.456C150.565 6.568 149.845 6.088 149.101 6.088C148.045 6.088 147.253 6.976 147.253 7.936C147.253 8.296 147.349 8.608 147.469 8.848L151.453 17.896C151.069 18.76 150.637 19.528 150.013 20.104C149.725 20.368 149.269 20.608 148.597 20.608C147.661 20.608 146.893 21.376 146.893 22.312C146.893 23.248 147.661 24.04 149.029 24.04C149.509 24.04 150.061 23.944 150.661 23.704C152.317 23.008 153.445 21.52 154.213 19.816L154.957 18.16H154.933L155.005 18.016L159.037 8.848C159.157 8.608 159.253 8.296 159.253 7.936C159.253 6.976 158.461 6.088 157.405 6.088ZM173.917 2.2H168.853C167.797 2.2 166.933 3.064 166.933 4.12V18.184C166.933 18.688 167.245 19 167.749 19H170.005C170.485 19 170.797 18.688 170.797 18.184V13.864H173.917C177.325 13.864 179.773 11.56 179.773 7.912C179.773 4.6 177.325 2.2 173.917 2.2ZM173.653 10.408H170.797V5.728H173.653C174.949 5.728 175.981 6.76 175.981 8.056C175.981 9.352 174.949 10.408 173.653 10.408ZM181.469 18.064C181.469 18.688 181.781 19 182.405 19H183.989C184.589 19 184.901 18.688 184.901 18.064V2.584C184.901 1.624 184.133 0.855999 183.173 0.855999C182.237 0.855999 181.469 1.624 181.469 2.584V18.064ZM198.386 6.088C197.618 6.088 196.97 6.592 196.754 7.288C195.77 6.448 194.594 6.088 193.322 6.088C189.866 6.088 186.914 9.016 186.914 12.64C186.914 16.312 189.866 19.24 193.322 19.24C194.546 19.24 195.698 18.832 196.682 17.896V18.064C196.682 18.688 196.994 19 197.618 19H199.202C199.802 19 200.114 18.688 200.114 18.064V7.816C200.114 6.856 199.346 6.088 198.386 6.088ZM193.466 15.88C191.714 15.88 190.25 14.464 190.25 12.64C190.25 10.864 191.714 9.448 193.466 9.448C195.266 9.448 196.682 10.864 196.682 12.64C196.682 14.464 195.266 15.88 193.466 15.88ZM209.058 15.568H208.386C207.402 15.568 206.874 15.256 206.874 14.032L206.898 9.64H209.106C210.042 9.64 210.762 8.896 210.762 7.96C210.762 7.072 210.042 6.328 209.106 6.328H206.922L206.946 4.504C206.946 3.496 206.178 2.824 205.266 2.824C204.282 2.824 203.514 3.496 203.514 4.504V6.328H203.202C202.266 6.328 201.546 7.072 201.546 7.96C201.546 8.896 202.266 9.64 203.202 9.64H203.514V14.272C203.514 16.096 203.73 17.272 204.402 18.016C205.026 18.712 205.914 19 207.618 19H209.058C210.018 19 210.786 18.232 210.786 17.272C210.786 16.336 210.018 15.568 209.058 15.568ZM219.075 6.328H216.771C216.771 5.032 217.563 4.48 218.619 4.48H219.387C220.299 4.48 221.187 3.712 221.187 2.728C221.187 1.744 220.491 0.855999 219.411 0.855999H218.067C215.355 0.855999 213.363 2.728 213.363 6.208V6.328H213.051C212.115 6.328 211.395 7.072 211.395 7.96C211.395 8.896 212.115 9.64 213.051 9.64H213.363L213.339 18.328C213.339 18.76 213.579 19 214.011 19H216.099C216.531 19 216.771 18.76 216.771 18.328V9.64H219.075C220.011 9.64 220.731 8.896 220.731 7.96C220.731 7.072 220.011 6.328 219.075 6.328ZM227.966 19.24C231.59 19.24 234.518 16.312 234.518 12.64C234.518 9.016 231.59 6.088 227.966 6.088C224.342 6.088 221.414 9.016 221.414 12.64C221.414 16.312 224.342 19.24 227.966 19.24ZM227.966 15.88C226.214 15.88 224.75 14.464 224.75 12.64C224.75 10.864 226.214 9.448 227.966 9.448C229.766 9.448 231.182 10.864 231.182 12.64C231.182 14.464 229.766 15.88 227.966 15.88ZM244.084 9.496C245.068 9.496 245.74 8.704 245.74 7.84C245.74 7.12 245.332 6.52 244.684 6.256C244.276 6.088 243.82 6.088 243.244 6.088C241.852 6.088 240.772 6.232 239.5 7.024C237.604 8.176 236.284 10.312 236.284 12.76V18.328C236.284 18.76 236.524 19 236.956 19H239.044C239.476 19 239.716 18.76 239.716 18.328V12.736C239.716 10.792 241.228 9.448 242.884 9.448C243.34 9.448 243.676 9.496 244.084 9.496ZM261.957 6.088C260.277 6.088 258.837 6.664 257.829 7.624C257.037 6.832 255.957 6.088 254.085 6.088C252.333 6.088 251.133 6.736 250.365 7.6C250.269 6.736 249.549 6.088 248.661 6.088C247.725 6.088 246.957 6.856 246.957 7.816V18.064C246.957 18.688 247.269 19 247.893 19H249.477C250.077 19 250.389 18.688 250.389 18.064V11.872C250.389 10.264 251.421 9.376 252.789 9.376C254.181 9.376 255.165 10.264 255.165 11.872V18.064C255.165 18.688 255.477 19 256.101 19H257.685C258.285 19 258.597 18.688 258.597 18.064V11.824C258.597 10.216 259.629 9.376 260.997 9.376C262.389 9.376 263.373 10.264 263.373 11.872V18.064C263.373 18.688 263.685 19 264.309 19H265.893C266.493 19 266.805 18.688 266.805 18.064V10.864C266.805 8.128 265.149 6.088 261.957 6.088Z" fill="#ED1C24"/>
</svg>
