<svg width="173" height="20" viewBox="0 0 173 20" fill="none" xmlns="http://www.w3.org/2000/svg">
<path d="M9.336 19.24C14.112 19.24 17.928 15.52 17.928 10.744C17.928 5.944 14.112 2.224 9.336 2.224C4.536 2.224 0.72 5.944 0.72 10.744C0.72 15.52 4.536 19.24 9.336 19.24ZM9.312 15.592C6.624 15.592 4.56 13.456 4.56 10.744C4.56 8.056 6.624 5.872 9.312 5.872C12 5.872 14.088 8.056 14.088 10.744C14.088 13.456 12 15.592 9.312 15.592ZM25.9043 19.24C27.7763 19.24 29.2163 18.64 29.7683 18.328C30.4403 17.944 30.8003 17.464 30.8003 16.816C30.8003 15.904 30.0803 15.184 29.2163 15.184C28.9043 15.184 28.5923 15.304 28.2803 15.472C27.7043 15.784 26.9843 15.976 26.1443 15.976C24.4403 15.976 22.8803 14.68 22.8803 12.664C22.8803 10.648 24.4403 9.4 26.1683 9.4C26.9363 9.4 27.6323 9.616 28.2083 9.928C28.5203 10.096 28.8323 10.216 29.1443 10.216C30.0083 10.216 30.7283 9.496 30.7283 8.584C30.7283 7.936 30.3683 7.456 29.6963 7.072C29.1443 6.76 27.7043 6.112 25.9043 6.112C22.0403 6.112 19.3283 9.088 19.3283 12.688C19.3283 16.288 22.0883 19.24 25.9043 19.24ZM43.2456 6.088C42.4776 6.088 41.8296 6.592 41.6136 7.288C40.6296 6.448 39.4536 6.088 38.1816 6.088C34.7256 6.088 31.7736 9.016 31.7736 12.64C31.7736 16.312 34.7256 19.24 38.1816 19.24C39.4056 19.24 40.5576 18.832 41.5416 17.896V18.064C41.5416 18.688 41.8536 19 42.4776 19H44.0616C44.6616 19 44.9736 18.688 44.9736 18.064V7.816C44.9736 6.856 44.2056 6.088 43.2456 6.088ZM38.3256 15.88C36.5736 15.88 35.1096 14.464 35.1096 12.64C35.1096 10.864 36.5736 9.448 38.3256 9.448C40.1256 9.448 41.5416 10.864 41.5416 12.64C41.5416 14.464 40.1256 15.88 38.3256 15.88ZM58.5251 0.855999C57.5891 0.855999 56.8211 1.528 56.8211 2.536V7.144C55.8851 6.424 54.8291 6.088 53.6771 6.088C50.0531 6.088 47.1251 9.016 47.1251 12.64C47.1251 16.312 50.0531 19.24 53.6771 19.24C57.3011 19.24 60.2531 16.336 60.2531 12.448V2.536C60.2531 1.528 59.4851 0.855999 58.5251 0.855999ZM53.6051 15.88C51.8051 15.88 50.3891 14.464 50.3891 12.64C50.3891 10.864 51.8051 9.448 53.6051 9.448C55.3571 9.448 56.8211 10.864 56.8211 12.64C56.8211 14.464 55.3571 15.88 53.6051 15.88ZM75.1114 12.16C75.1114 9.16 72.1834 6.088 68.6314 6.088C64.8394 6.088 62.0314 9.064 62.0314 12.712C62.0314 16.552 64.9114 19.24 69.0154 19.24C70.3594 19.24 72.1354 18.976 73.2394 18.352C73.9354 17.968 74.2954 17.464 74.2954 16.816C74.2954 15.904 73.5754 15.256 72.7594 15.256C72.3994 15.256 72.0874 15.376 71.7994 15.544C71.2234 15.88 70.3114 16.216 69.1834 16.216C67.4074 16.216 65.9434 15.376 65.5114 14.08H73.7194C74.4394 14.08 75.1114 13.528 75.1114 12.16ZM65.4394 11.608C65.7274 10.336 66.9994 9.256 68.5834 9.256C70.1674 9.256 71.4154 10.336 71.7034 11.608H65.4394ZM101.48 16.456C100.784 15.832 100.136 15.328 99.5841 14.872C100.112 14.2 100.616 13.456 101.096 12.712C101.432 12.184 101.48 11.896 101.48 11.632C101.48 10.744 100.76 10 99.8721 10C99.3201 10 98.7921 10.288 98.5041 10.744C98.0721 11.464 97.6161 12.136 97.1361 12.784L94.8081 10.648C96.8241 9.376 97.6161 7.648 97.6161 6.208C97.6161 3.832 95.6481 2.2 92.9121 2.2C90.0561 2.2 88.2081 3.832 88.2081 6.256C88.2081 7.768 88.8801 9.04 89.8401 10.192C87.8721 11.392 86.7201 12.832 86.7201 14.728C86.7201 17.368 88.9521 19.24 92.1681 19.24C94.1601 19.24 95.8641 18.472 97.3281 17.248C97.8321 17.68 98.2881 18.064 98.7921 18.448C99.3441 18.88 99.8961 19.24 100.448 19.24C101.48 19.24 102.056 18.424 102.056 17.704C102.056 17.104 101.84 16.792 101.48 16.456ZM92.9121 4.792C93.8001 4.792 94.4481 5.44 94.4481 6.28C94.4481 7.48 93.8241 7.96 92.7441 8.56L92.6481 8.608C91.9521 7.84 91.4961 7.096 91.4961 6.28C91.4961 5.44 92.0961 4.792 92.9121 4.792ZM90.2481 14.584C90.2481 13.672 90.9201 12.88 91.8801 12.304C92.0481 12.472 92.2401 12.616 92.4081 12.784L94.9521 15.136C94.1121 15.76 93.2241 16.144 92.2401 16.144C91.0161 16.144 90.2481 15.544 90.2481 14.584ZM117.055 19.24C121.831 19.24 125.647 15.52 125.647 10.744C125.647 5.944 121.831 2.224 117.055 2.224C112.255 2.224 108.439 5.944 108.439 10.744C108.439 15.52 112.255 19.24 117.055 19.24ZM117.031 15.592C114.343 15.592 112.279 13.456 112.279 10.744C112.279 8.056 114.343 5.872 117.031 5.872C119.719 5.872 121.807 8.056 121.807 10.744C121.807 13.456 119.719 15.592 117.031 15.592ZM133.623 19.24C135.495 19.24 136.935 18.64 137.487 18.328C138.159 17.944 138.519 17.464 138.519 16.816C138.519 15.904 137.799 15.184 136.935 15.184C136.623 15.184 136.311 15.304 135.999 15.472C135.423 15.784 134.703 15.976 133.863 15.976C132.159 15.976 130.599 14.68 130.599 12.664C130.599 10.648 132.159 9.4 133.887 9.4C134.655 9.4 135.351 9.616 135.927 9.928C136.239 10.096 136.551 10.216 136.863 10.216C137.727 10.216 138.447 9.496 138.447 8.584C138.447 7.936 138.087 7.456 137.415 7.072C136.863 6.76 135.423 6.112 133.623 6.112C129.759 6.112 127.047 9.088 127.047 12.688C127.047 16.288 129.807 19.24 133.623 19.24ZM146.044 19.24C149.668 19.24 152.596 16.312 152.596 12.64C152.596 9.016 149.668 6.088 146.044 6.088C142.42 6.088 139.492 9.016 139.492 12.64C139.492 16.312 142.42 19.24 146.044 19.24ZM146.044 15.88C144.292 15.88 142.828 14.464 142.828 12.64C142.828 10.864 144.292 9.448 146.044 9.448C147.844 9.448 149.26 10.864 149.26 12.64C149.26 14.464 147.844 15.88 146.044 15.88ZM156.522 4.792C157.602 4.792 158.49 3.904 158.49 2.8C158.49 1.72 157.602 0.831999 156.522 0.831999C155.418 0.831999 154.53 1.72 154.53 2.8C154.53 3.904 155.418 4.792 156.522 4.792ZM158.25 7.816C158.25 6.856 157.482 6.088 156.522 6.088C155.586 6.088 154.818 6.856 154.818 7.816V18.064C154.818 18.688 155.13 19 155.754 19H157.338C157.938 19 158.25 18.688 158.25 18.064V7.816ZM168.341 6.088C166.685 6.088 165.485 6.736 164.717 7.6C164.621 6.736 163.877 6.088 163.013 6.088C162.077 6.088 161.309 6.856 161.309 7.816V18.328C161.309 18.76 161.549 19 161.981 19H164.069C164.501 19 164.741 18.76 164.741 18.328V11.872C164.741 10.288 165.773 9.376 167.141 9.376C168.533 9.376 169.517 10.288 169.517 11.872V18.328C169.517 18.76 169.757 19 170.189 19H172.277C172.709 19 172.949 18.76 172.949 18.328V10.864C172.949 8.128 171.293 6.088 168.341 6.088Z" fill="#ED1C24"/>
</svg>
