<svg width="71" height="17" viewBox="0 0 71 17" fill="none" xmlns="http://www.w3.org/2000/svg">
<path d="M7.81432 16.2C11.7943 16.2 14.9743 13.1 14.9743 9.12C14.9743 5.12 11.7943 2.02 7.81432 2.02C3.81432 2.02 0.634317 5.12 0.634317 9.12C0.634317 13.1 3.81432 16.2 7.81432 16.2ZM7.79432 13.16C5.55432 13.16 3.83432 11.38 3.83432 9.12C3.83432 6.88 5.55432 5.06 7.79432 5.06C10.0343 5.06 11.7743 6.88 11.7743 9.12C11.7743 11.38 10.0343 13.16 7.79432 13.16ZM20.8812 9.5C21.5612 9.5 22.1012 10.04 22.1012 10.7C22.1012 11.4 21.5612 11.94 20.8812 11.94H17.6812C17.0012 11.94 16.4612 11.4 16.4612 10.7C16.4612 10.04 17.0012 9.5 17.6812 9.5H20.8812ZM29.0235 16.2C30.5835 16.2 31.7835 15.7 32.2435 15.44C32.8035 15.12 33.1035 14.72 33.1035 14.18C33.1035 13.42 32.5035 12.82 31.7835 12.82C31.5235 12.82 31.2635 12.92 31.0035 13.06C30.5235 13.32 29.9235 13.48 29.2235 13.48C27.8035 13.48 26.5035 12.4 26.5035 10.72C26.5035 9.04 27.8035 8 29.2435 8C29.8835 8 30.4635 8.18 30.9435 8.44C31.2035 8.58 31.4635 8.68 31.7235 8.68C32.4435 8.68 33.0435 8.08 33.0435 7.32C33.0435 6.78 32.7435 6.38 32.1835 6.06C31.7235 5.8 30.5235 5.26 29.0235 5.26C25.8035 5.26 23.5435 7.74 23.5435 10.74C23.5435 13.74 25.8435 16.2 29.0235 16.2ZM43.4746 5.24C42.8346 5.24 42.2946 5.66 42.1146 6.24C41.2946 5.54 40.3146 5.24 39.2546 5.24C36.3746 5.24 33.9146 7.68 33.9146 10.7C33.9146 13.76 36.3746 16.2 39.2546 16.2C40.2746 16.2 41.2346 15.86 42.0546 15.08V15.22C42.0546 15.74 42.3146 16 42.8346 16H44.1546C44.6546 16 44.9146 15.74 44.9146 15.22V6.68C44.9146 5.88 44.2746 5.24 43.4746 5.24ZM39.3746 13.4C37.9146 13.4 36.6946 12.22 36.6946 10.7C36.6946 9.22 37.9146 8.04 39.3746 8.04C40.8746 8.04 42.0546 9.22 42.0546 10.7C42.0546 12.22 40.8746 13.4 39.3746 13.4ZM56.2076 0.879999C55.4276 0.879999 54.7876 1.44 54.7876 2.28V6.12C54.0076 5.52 53.1276 5.24 52.1676 5.24C49.1476 5.24 46.7076 7.68 46.7076 10.7C46.7076 13.76 49.1476 16.2 52.1676 16.2C55.1876 16.2 57.6476 13.78 57.6476 10.54V2.28C57.6476 1.44 57.0076 0.879999 56.2076 0.879999ZM52.1076 13.4C50.6076 13.4 49.4276 12.22 49.4276 10.7C49.4276 9.22 50.6076 8.04 52.1076 8.04C53.5676 8.04 54.7876 9.22 54.7876 10.7C54.7876 12.22 53.5676 13.4 52.1076 13.4ZM70.0295 10.3C70.0295 7.8 67.5895 5.24 64.6295 5.24C61.4695 5.24 59.1295 7.72 59.1295 10.76C59.1295 13.96 61.5295 16.2 64.9495 16.2C66.0695 16.2 67.5495 15.98 68.4695 15.46C69.0495 15.14 69.3495 14.72 69.3495 14.18C69.3495 13.42 68.7495 12.88 68.0695 12.88C67.7695 12.88 67.5095 12.98 67.2695 13.12C66.7895 13.4 66.0295 13.68 65.0895 13.68C63.6095 13.68 62.3895 12.98 62.0295 11.9H68.8695C69.4695 11.9 70.0295 11.44 70.0295 10.3ZM61.9695 9.84C62.2095 8.78 63.2695 7.88 64.5895 7.88C65.9095 7.88 66.9495 8.78 67.1895 9.84H61.9695Z" fill="white"/>
</svg>
