<svg width="138" height="16" viewBox="0 0 138 16" fill="none" xmlns="http://www.w3.org/2000/svg">
<path d="M7.58127 15.3928C11.5613 15.3928 14.7413 12.2928 14.7413 8.31276C14.7413 4.31276 11.5613 1.21276 7.58127 1.21276C3.58127 1.21276 0.40127 4.31276 0.40127 8.31276C0.40127 12.2928 3.58127 15.3928 7.58127 15.3928ZM7.56127 12.3528C5.32127 12.3528 3.60127 10.5728 3.60127 8.31276C3.60127 6.07276 5.32127 4.25276 7.56127 4.25276C9.80127 4.25276 11.5413 6.07276 11.5413 8.31276C11.5413 10.5728 9.80127 12.3528 7.56127 12.3528ZM22.8481 15.3928C25.4481 15.3928 26.9681 14.4728 27.8281 13.4128C28.0881 13.0928 28.2081 12.7728 28.2081 12.4528C28.2081 11.6328 27.5681 11.0528 26.8281 11.0528C26.4881 11.0528 26.1881 11.1928 25.9481 11.3528C25.1081 11.9128 24.4681 12.5928 22.9281 12.5928C20.8081 12.5928 19.1281 10.7928 19.1281 8.29276C19.1281 5.79276 20.7681 3.99276 22.8481 3.99276C24.3681 3.99276 24.9681 4.63276 25.8681 5.23276C26.1081 5.39276 26.4081 5.53276 26.7481 5.53276C27.4881 5.53276 28.1481 4.95276 28.1481 4.13276C28.1481 3.81276 28.0081 3.49276 27.7481 3.17276C26.8681 2.13276 25.3681 1.19276 22.8881 1.19276C18.8681 1.19276 15.9481 4.17276 15.9481 8.27276C15.9481 12.3928 18.8481 15.3928 22.8481 15.3928ZM40.7722 12.8128L38.8522 9.65276C40.1722 8.77276 41.0722 7.33276 41.0722 5.91276C41.0722 3.17276 39.0122 1.19276 36.1522 1.19276H31.9322C31.0522 1.19276 30.3122 1.91276 30.3122 2.79276V14.5128C30.3122 14.9328 30.5722 15.1928 30.9922 15.1928H32.8722C33.2722 15.1928 33.5322 14.9328 33.5322 14.5128V10.4728H35.4122L38.1722 14.7128C38.4722 15.1728 38.9922 15.3128 39.4922 15.3128C40.4322 15.3128 41.0922 14.6528 41.0922 13.7928C41.0922 13.4528 40.9722 13.1328 40.7722 12.8128ZM36.1122 7.63276H33.5322V4.13276H36.1122C37.0722 4.13276 37.8522 4.91276 37.8522 5.87276C37.8522 6.85276 37.0722 7.63276 36.1122 7.63276ZM52.9322 12.4328C53.8122 12.4328 54.2522 12.0128 54.2522 11.3728C54.2522 10.6328 53.6722 10.3328 52.4922 9.91276L50.7922 9.31276C48.3922 8.47276 47.3522 7.09276 47.3322 5.63276C47.2722 3.09276 49.1722 1.21276 52.6922 1.21276C54.0322 1.21276 55.7122 1.57276 56.7122 2.21276C57.3122 2.59276 57.6122 3.07276 57.6122 3.63276C57.6122 4.45276 56.9722 5.09276 56.1722 5.09276C55.3722 5.09276 54.8122 4.77276 54.1522 4.55276C53.5922 4.37276 52.8322 4.17276 52.2522 4.17276C51.4322 4.17276 51.0122 4.65276 51.0122 5.21276C51.0122 5.87276 51.5522 6.27276 52.6522 6.65276L54.6922 7.37276C57.1522 8.23276 57.8322 9.67276 57.8522 10.8928C57.8922 13.3128 56.0522 15.3928 52.2322 15.3928C50.9322 15.3928 49.0922 14.9928 47.8922 14.3728C47.0522 13.9328 46.7122 13.3928 46.7122 12.8128C46.7122 11.9928 47.3522 11.3528 48.1522 11.3528C48.7722 11.3528 49.5922 11.7928 50.6522 12.0528C51.3722 12.2328 52.2722 12.4328 52.9322 12.4328ZM64.6494 15.3928C67.6694 15.3928 70.1094 12.9528 70.1094 9.89276C70.1094 6.87276 67.6694 4.43276 64.6494 4.43276C61.6294 4.43276 59.1894 6.87276 59.1894 9.89276C59.1894 12.9528 61.6294 15.3928 64.6494 15.3928ZM64.6494 12.5928C63.1894 12.5928 61.9694 11.4128 61.9694 9.89276C61.9694 8.41276 63.1894 7.23276 64.6494 7.23276C66.1494 7.23276 67.3294 8.41276 67.3294 9.89276C67.3294 11.4128 66.1494 12.5928 64.6494 12.5928ZM77.2006 4.63276H75.2806C75.2806 3.55276 75.9406 3.09276 76.8206 3.09276H77.4606C78.2206 3.09276 78.9606 2.45276 78.9606 1.63276C78.9606 0.812763 78.3806 0.0727634 77.4806 0.0727634H76.3606C74.1006 0.0727634 72.4406 1.63276 72.4406 4.53276V4.63276H72.1806C71.4006 4.63276 70.8006 5.25276 70.8006 5.99276C70.8006 6.77276 71.4006 7.39276 72.1806 7.39276H72.4406L72.4206 14.6328C72.4206 14.9928 72.6206 15.1928 72.9806 15.1928H74.7206C75.0806 15.1928 75.2806 14.9928 75.2806 14.6328V7.39276H77.2006C77.9806 7.39276 78.5806 6.77276 78.5806 5.99276C78.5806 5.25276 77.9806 4.63276 77.2006 4.63276ZM85.6111 12.3328H85.0511C84.2311 12.3328 83.7911 12.0728 83.7911 11.0528L83.8111 7.39276H85.6511C86.4311 7.39276 87.0311 6.77276 87.0311 5.99276C87.0311 5.25276 86.4311 4.63276 85.6511 4.63276H83.8311L83.8511 3.11276C83.8511 2.27276 83.2111 1.71276 82.4511 1.71276C81.6311 1.71276 80.9911 2.27276 80.9911 3.11276V4.63276H80.7311C79.9511 4.63276 79.3511 5.25276 79.3511 5.99276C79.3511 6.77276 79.9511 7.39276 80.7311 7.39276H80.9911V11.2528C80.9911 12.7728 81.1711 13.7528 81.7311 14.3728C82.2511 14.9528 82.9911 15.1928 84.4111 15.1928H85.6111C86.4111 15.1928 87.0511 14.5528 87.0511 13.7528C87.0511 12.9728 86.4111 12.3328 85.6111 12.3328ZM103.269 4.43276C102.609 4.43276 102.049 4.83276 101.769 5.55276L99.8891 10.6328C99.2691 8.95276 98.6491 7.27276 98.0091 5.57276C97.7291 4.83276 97.1491 4.43276 96.5091 4.43276C95.8691 4.43276 95.2891 4.83276 95.0091 5.57276C94.3691 7.27276 93.7491 8.95276 93.1291 10.6328L91.2491 5.55276C90.9691 4.83276 90.4091 4.43276 89.7491 4.43276C88.8691 4.43276 88.2091 5.17276 88.2091 5.97276C88.2091 6.27276 88.3091 6.53276 88.3891 6.73276L91.6691 14.3728C91.9691 15.0528 92.4891 15.3928 93.1291 15.3928C93.7691 15.3928 94.2891 15.0528 94.5891 14.3728L96.5091 9.91276L98.4291 14.3728C98.7291 15.0528 99.2491 15.3928 99.8891 15.3928C100.529 15.3928 101.049 15.0528 101.349 14.3728L104.629 6.73276C104.709 6.53276 104.809 6.27276 104.809 5.97276C104.809 5.17276 104.149 4.43276 103.269 4.43276ZM115.331 4.43276C114.691 4.43276 114.151 4.85276 113.971 5.43276C113.151 4.73276 112.171 4.43276 111.111 4.43276C108.231 4.43276 105.771 6.87276 105.771 9.89276C105.771 12.9528 108.231 15.3928 111.111 15.3928C112.131 15.3928 113.091 15.0528 113.911 14.2728V14.4128C113.911 14.9328 114.171 15.1928 114.691 15.1928H116.011C116.511 15.1928 116.771 14.9328 116.771 14.4128V5.87276C116.771 5.07276 116.131 4.43276 115.331 4.43276ZM111.231 12.5928C109.771 12.5928 108.551 11.4128 108.551 9.89276C108.551 8.41276 109.771 7.23276 111.231 7.23276C112.731 7.23276 113.911 8.41276 113.911 9.89276C113.911 11.4128 112.731 12.5928 111.231 12.5928ZM125.424 7.27276C126.244 7.27276 126.804 6.61276 126.804 5.89276C126.804 5.29276 126.464 4.79276 125.924 4.57276C125.584 4.43276 125.204 4.43276 124.724 4.43276C123.564 4.43276 122.664 4.55276 121.604 5.21276C120.024 6.17276 118.924 7.95276 118.924 9.99276V14.6328C118.924 14.9928 119.124 15.1928 119.484 15.1928H121.224C121.584 15.1928 121.784 14.9928 121.784 14.6328V9.97276C121.784 8.35276 123.044 7.23276 124.424 7.23276C124.804 7.23276 125.084 7.27276 125.424 7.27276ZM137.472 9.49276C137.472 6.99276 135.032 4.43276 132.072 4.43276C128.912 4.43276 126.572 6.91276 126.572 9.95276C126.572 13.1528 128.972 15.3928 132.392 15.3928C133.512 15.3928 134.992 15.1728 135.912 14.6528C136.492 14.3328 136.792 13.9128 136.792 13.3728C136.792 12.6128 136.192 12.0728 135.512 12.0728C135.212 12.0728 134.952 12.1728 134.712 12.3128C134.232 12.5928 133.472 12.8728 132.532 12.8728C131.052 12.8728 129.832 12.1728 129.472 11.0928H136.312C136.912 11.0928 137.472 10.6328 137.472 9.49276ZM129.412 9.03276C129.652 7.97276 130.712 7.07276 132.032 7.07276C133.352 7.07276 134.392 7.97276 134.632 9.03276H129.412Z" fill="white"/>
</svg>
