<svg width="166" height="20" viewBox="0 0 166 20" fill="none" xmlns="http://www.w3.org/2000/svg">
<path d="M9.336 19.24C14.112 19.24 17.928 15.52 17.928 10.744C17.928 5.944 14.112 2.224 9.336 2.224C4.536 2.224 0.72 5.944 0.72 10.744C0.72 15.52 4.536 19.24 9.336 19.24ZM9.312 15.592C6.624 15.592 4.56 13.456 4.56 10.744C4.56 8.056 6.624 5.872 9.312 5.872C12 5.872 14.088 8.056 14.088 10.744C14.088 13.456 12 15.592 9.312 15.592ZM27.6563 19.24C30.7762 19.24 32.6003 18.136 33.6323 16.864C33.9443 16.48 34.0883 16.096 34.0883 15.712C34.0883 14.728 33.3203 14.032 32.4323 14.032C32.0243 14.032 31.6643 14.2 31.3763 14.392C30.3683 15.064 29.6003 15.88 27.7523 15.88C25.2083 15.88 23.1923 13.72 23.1923 10.72C23.1923 7.72 25.1603 5.56 27.6563 5.56C29.4803 5.56 30.2003 6.328 31.2803 7.048C31.5683 7.24 31.9283 7.408 32.3363 7.408C33.2243 7.408 34.0163 6.712 34.0163 5.728C34.0163 5.344 33.8483 4.96 33.5363 4.576C32.4803 3.328 30.6803 2.2 27.7043 2.2C22.8803 2.2 19.3763 5.776 19.3763 10.696C19.3763 15.64 22.8563 19.24 27.6563 19.24ZM49.1651 16.144L46.8611 12.352C48.4451 11.296 49.5251 9.568 49.5251 7.864C49.5251 4.576 47.0531 2.2 43.6211 2.2H38.5571C37.5011 2.2 36.6131 3.064 36.6131 4.12V18.184C36.6131 18.688 36.9251 19 37.4291 19H39.6851C40.1651 19 40.4771 18.688 40.4771 18.184V13.336H42.7331L46.0451 18.424C46.4051 18.976 47.0291 19.144 47.6291 19.144C48.7571 19.144 49.5491 18.352 49.5491 17.32C49.5491 16.912 49.4051 16.528 49.1651 16.144ZM43.5731 9.928H40.4771V5.728H43.5731C44.7251 5.728 45.6611 6.664 45.6611 7.816C45.6611 8.992 44.7251 9.928 43.5731 9.928ZM63.7571 15.688C64.8131 15.688 65.3411 15.184 65.3411 14.416C65.3411 13.528 64.6451 13.168 63.2291 12.664L61.1891 11.944C58.3091 10.936 57.0611 9.28 57.0371 7.528C56.9651 4.48 59.2451 2.224 63.4691 2.224C65.0771 2.224 67.0931 2.656 68.2931 3.424C69.0131 3.88 69.3731 4.456 69.3731 5.128C69.3731 6.112 68.6051 6.88 67.6451 6.88C66.6851 6.88 66.0131 6.496 65.2211 6.232C64.5491 6.016 63.6371 5.776 62.9411 5.776C61.9571 5.776 61.4531 6.352 61.4531 7.024C61.4531 7.816 62.1011 8.296 63.4211 8.752L65.8691 9.616C68.8211 10.648 69.6371 12.376 69.6611 13.84C69.7091 16.744 67.5011 19.24 62.9171 19.24C61.3571 19.24 59.1491 18.76 57.7091 18.016C56.7011 17.488 56.2931 16.84 56.2931 16.144C56.2931 15.16 57.0611 14.392 58.0211 14.392C58.7651 14.392 59.7491 14.92 61.0211 15.232C61.8851 15.448 62.9651 15.688 63.7571 15.688ZM77.8178 19.24C81.4418 19.24 84.3698 16.312 84.3698 12.64C84.3698 9.016 81.4418 6.088 77.8178 6.088C74.1938 6.088 71.2658 9.016 71.2658 12.64C71.2658 16.312 74.1938 19.24 77.8178 19.24ZM77.8178 15.88C76.0658 15.88 74.6018 14.464 74.6018 12.64C74.6018 10.864 76.0658 9.448 77.8178 9.448C79.6178 9.448 81.0338 10.864 81.0338 12.64C81.0338 14.464 79.6178 15.88 77.8178 15.88ZM92.8793 6.328H90.5753C90.5753 5.032 91.3672 4.48 92.4233 4.48H93.1913C94.1033 4.48 94.9913 3.712 94.9913 2.728C94.9913 1.744 94.2953 0.855999 93.2153 0.855999H91.8713C89.1593 0.855999 87.1673 2.728 87.1673 6.208V6.328H86.8553C85.9193 6.328 85.1993 7.072 85.1993 7.96C85.1993 8.896 85.9193 9.64 86.8553 9.64H87.1673L87.1433 18.328C87.1433 18.76 87.3833 19 87.8153 19H89.9033C90.3353 19 90.5753 18.76 90.5753 18.328V9.64H92.8793C93.8153 9.64 94.5353 8.896 94.5353 7.96C94.5353 7.072 93.8153 6.328 92.8793 6.328ZM102.972 15.568H102.3C101.316 15.568 100.788 15.256 100.788 14.032L100.812 9.64H103.02C103.956 9.64 104.676 8.896 104.676 7.96C104.676 7.072 103.956 6.328 103.02 6.328H100.836L100.86 4.504C100.86 3.496 100.092 2.824 99.1798 2.824C98.1958 2.824 97.4278 3.496 97.4278 4.504V6.328H97.1158C96.1798 6.328 95.4598 7.072 95.4598 7.96C95.4598 8.896 96.1798 9.64 97.1158 9.64H97.4278V14.272C97.4278 16.096 97.6438 17.272 98.3158 18.016C98.9398 18.712 99.8278 19 101.532 19H102.972C103.932 19 104.7 18.232 104.7 17.272C104.7 16.336 103.932 15.568 102.972 15.568ZM124.161 6.088C123.369 6.088 122.697 6.568 122.361 7.432L120.105 13.528C119.361 11.512 118.617 9.496 117.849 7.456C117.513 6.568 116.817 6.088 116.049 6.088C115.281 6.088 114.585 6.568 114.249 7.456C113.481 9.496 112.737 11.512 111.993 13.528L109.737 7.432C109.401 6.568 108.729 6.088 107.937 6.088C106.881 6.088 106.089 6.976 106.089 7.936C106.089 8.296 106.209 8.608 106.305 8.848L110.241 18.016C110.601 18.832 111.225 19.24 111.993 19.24C112.761 19.24 113.385 18.832 113.745 18.016L116.049 12.664L118.353 18.016C118.713 18.832 119.337 19.24 120.105 19.24C120.873 19.24 121.497 18.832 121.857 18.016L125.793 8.848C125.889 8.608 126.009 8.296 126.009 7.936C126.009 6.976 125.217 6.088 124.161 6.088ZM138.636 6.088C137.868 6.088 137.22 6.592 137.004 7.288C136.02 6.448 134.844 6.088 133.572 6.088C130.116 6.088 127.164 9.016 127.164 12.64C127.164 16.312 130.116 19.24 133.572 19.24C134.796 19.24 135.948 18.832 136.932 17.896V18.064C136.932 18.688 137.244 19 137.868 19H139.452C140.052 19 140.364 18.688 140.364 18.064V7.816C140.364 6.856 139.596 6.088 138.636 6.088ZM133.716 15.88C131.964 15.88 130.5 14.464 130.5 12.64C130.5 10.864 131.964 9.448 133.716 9.448C135.516 9.448 136.932 10.864 136.932 12.64C136.932 14.464 135.516 15.88 133.716 15.88ZM150.748 9.496C151.732 9.496 152.404 8.704 152.404 7.84C152.404 7.12 151.996 6.52 151.348 6.256C150.94 6.088 150.484 6.088 149.908 6.088C148.516 6.088 147.436 6.232 146.164 7.024C144.268 8.176 142.948 10.312 142.948 12.76V18.328C142.948 18.76 143.188 19 143.62 19H145.708C146.14 19 146.38 18.76 146.38 18.328V12.736C146.38 10.792 147.892 9.448 149.548 9.448C150.004 9.448 150.34 9.496 150.748 9.496ZM165.205 12.16C165.205 9.16 162.277 6.088 158.725 6.088C154.933 6.088 152.125 9.064 152.125 12.712C152.125 16.552 155.005 19.24 159.109 19.24C160.453 19.24 162.229 18.976 163.333 18.352C164.029 17.968 164.389 17.464 164.389 16.816C164.389 15.904 163.669 15.256 162.853 15.256C162.493 15.256 162.181 15.376 161.893 15.544C161.317 15.88 160.405 16.216 159.277 16.216C157.501 16.216 156.037 15.376 155.605 14.08H163.813C164.533 14.08 165.205 13.528 165.205 12.16ZM155.533 11.608C155.821 10.336 157.093 9.256 158.677 9.256C160.261 9.256 161.509 10.336 161.797 11.608H155.533Z" fill="#ED1C24"/>
</svg>
