<svg width="173" height="25" viewBox="0 0 173 25" fill="none" xmlns="http://www.w3.org/2000/svg">
<path d="M9.336 19.24C14.112 19.24 17.928 15.52 17.928 10.744C17.928 5.944 14.112 2.224 9.336 2.224C4.536 2.224 0.72 5.944 0.72 10.744C0.72 15.52 4.536 19.24 9.336 19.24ZM9.312 15.592C6.624 15.592 4.56 13.456 4.56 10.744C4.56 8.056 6.624 5.872 9.312 5.872C12 5.872 14.088 8.056 14.088 10.744C14.088 13.456 12 15.592 9.312 15.592ZM25.8803 19.24C29.5043 19.24 32.4323 16.312 32.4323 12.64C32.4323 9.016 29.5043 6.088 25.8803 6.088C22.2563 6.088 19.3283 9.016 19.3283 12.64C19.3283 16.312 22.2563 19.24 25.8803 19.24ZM25.8803 15.88C24.1283 15.88 22.6643 14.464 22.6643 12.64C22.6643 10.864 24.1283 9.448 25.8803 9.448C27.6803 9.448 29.0963 10.864 29.0963 12.64C29.0963 14.464 27.6803 15.88 25.8803 15.88ZM49.6058 6.088C47.9258 6.088 46.4858 6.664 45.4778 7.624C44.6858 6.832 43.6058 6.088 41.7338 6.088C39.9818 6.088 38.7818 6.736 38.0138 7.6C37.9178 6.736 37.1978 6.088 36.3098 6.088C35.3738 6.088 34.6058 6.856 34.6058 7.816V18.064C34.6058 18.688 34.9178 19 35.5418 19H37.1258C37.7258 19 38.0378 18.688 38.0378 18.064V11.872C38.0378 10.264 39.0698 9.376 40.4378 9.376C41.8298 9.376 42.8138 10.264 42.8138 11.872V18.064C42.8138 18.688 43.1258 19 43.7498 19H45.3338C45.9338 19 46.2458 18.688 46.2458 18.064V11.824C46.2458 10.216 47.2778 9.376 48.6458 9.376C50.0378 9.376 51.0218 10.264 51.0218 11.872V18.064C51.0218 18.688 51.3338 19 51.9578 19H53.5418C54.1418 19 54.4538 18.688 54.4538 18.064V10.864C54.4538 8.128 52.7978 6.088 49.6058 6.088ZM67.9721 6.088C67.2041 6.088 66.5561 6.592 66.3401 7.288C65.3561 6.448 64.1801 6.088 62.9081 6.088C59.4521 6.088 56.5001 9.016 56.5001 12.64C56.5001 16.312 59.4521 19.24 62.9081 19.24C64.1321 19.24 65.2841 18.832 66.2681 17.896V18.064C66.2681 18.688 66.5801 19 67.2041 19H68.7881C69.3881 19 69.7001 18.688 69.7001 18.064V7.816C69.7001 6.856 68.9321 6.088 67.9721 6.088ZM63.0521 15.88C61.3001 15.88 59.8361 14.464 59.8361 12.64C59.8361 10.864 61.3001 9.448 63.0521 9.448C64.8521 9.448 66.2681 10.864 66.2681 12.64C66.2681 14.464 64.8521 15.88 63.0521 15.88ZM79.7237 6.088C78.0677 6.088 76.8677 6.736 76.0997 7.6C76.0037 6.736 75.2597 6.088 74.3957 6.088C73.4597 6.088 72.6917 6.856 72.6917 7.816V18.328C72.6917 18.76 72.9317 19 73.3637 19H75.4517C75.8837 19 76.1237 18.76 76.1237 18.328V11.872C76.1237 10.288 77.1557 9.376 78.5237 9.376C79.9157 9.376 80.8997 10.288 80.8997 11.872V18.328C80.8997 18.76 81.1397 19 81.5717 19H83.6597C84.0917 19 84.3317 18.76 84.3317 18.328V10.864C84.3317 8.128 82.6757 6.088 79.7237 6.088ZM88.8069 4.792C89.8869 4.792 90.7749 3.904 90.7749 2.8C90.7749 1.72 89.8869 0.831999 88.8069 0.831999C87.7029 0.831999 86.8149 1.72 86.8149 2.8C86.8149 3.904 87.7029 4.792 88.8069 4.792ZM87.1509 7.816V17.848C87.1509 19.624 86.7669 21.064 85.1829 21.064C84.1749 21.064 83.4549 21.88 83.4549 22.792C83.4549 23.632 84.1029 24.496 85.2549 24.496C87.0549 24.496 87.7269 24.256 88.6629 23.416C89.8629 22.36 90.5589 20.416 90.5589 18.52L90.5829 7.816C90.5829 6.856 89.8149 6.088 88.8549 6.088C87.9189 6.088 87.1509 6.856 87.1509 7.816ZM95.3265 4.792C96.4065 4.792 97.2945 3.904 97.2945 2.8C97.2945 1.72 96.4065 0.831999 95.3265 0.831999C94.2225 0.831999 93.3345 1.72 93.3345 2.8C93.3345 3.904 94.2225 4.792 95.3265 4.792ZM97.0545 7.816C97.0545 6.856 96.2865 6.088 95.3265 6.088C94.3905 6.088 93.6225 6.856 93.6225 7.816V18.064C93.6225 18.688 93.9345 19 94.5585 19H96.1425C96.7425 19 97.0545 18.688 97.0545 18.064V7.816ZM117.921 9.664L114.201 9.64C113.169 9.64 112.353 10.384 112.353 11.416C112.353 12.472 113.169 13.192 114.201 13.216L116.025 13.24V15.496C115.545 15.712 114.945 15.88 113.457 15.88C110.169 15.88 108.177 13.72 108.177 10.72C108.177 7.72 109.905 5.56 112.953 5.56C114.777 5.56 115.497 6.328 116.577 7.048C116.865 7.24 117.225 7.408 117.633 7.408C118.521 7.408 119.313 6.712 119.313 5.728C119.313 5.344 119.145 4.96 118.833 4.576C117.801 3.304 115.977 2.2 113.001 2.2C107.529 2.2 104.361 5.776 104.361 10.696C104.361 15.64 107.793 19.24 113.025 19.24C116.793 19.24 119.889 18.16 119.889 16.168V11.536C119.889 10.288 119.001 9.664 117.921 9.664ZM132.894 6.088C132.126 6.088 131.478 6.592 131.262 7.288C130.278 6.448 129.102 6.088 127.83 6.088C124.374 6.088 121.422 9.016 121.422 12.64C121.422 16.312 124.374 19.24 127.83 19.24C129.054 19.24 130.206 18.832 131.19 17.896V18.064C131.19 18.688 131.502 19 132.126 19H133.71C134.31 19 134.622 18.688 134.622 18.064V7.816C134.622 6.856 133.854 6.088 132.894 6.088ZM127.974 15.88C126.222 15.88 124.758 14.464 124.758 12.64C124.758 10.864 126.222 9.448 127.974 9.448C129.774 9.448 131.19 10.864 131.19 12.64C131.19 14.464 129.774 15.88 127.974 15.88ZM152.614 6.088C150.934 6.088 149.494 6.664 148.486 7.624C147.694 6.832 146.614 6.088 144.742 6.088C142.99 6.088 141.79 6.736 141.022 7.6C140.926 6.736 140.206 6.088 139.318 6.088C138.382 6.088 137.614 6.856 137.614 7.816V18.064C137.614 18.688 137.926 19 138.55 19H140.134C140.734 19 141.046 18.688 141.046 18.064V11.872C141.046 10.264 142.078 9.376 143.446 9.376C144.838 9.376 145.822 10.264 145.822 11.872V18.064C145.822 18.688 146.134 19 146.758 19H148.342C148.942 19 149.254 18.688 149.254 18.064V11.824C149.254 10.216 150.286 9.376 151.654 9.376C153.046 9.376 154.03 10.264 154.03 11.872V18.064C154.03 18.688 154.342 19 154.966 19H156.55C157.15 19 157.462 18.688 157.462 18.064V10.864C157.462 8.128 155.806 6.088 152.614 6.088ZM172.588 12.16C172.588 9.16 169.66 6.088 166.108 6.088C162.316 6.088 159.508 9.064 159.508 12.712C159.508 16.552 162.388 19.24 166.492 19.24C167.836 19.24 169.612 18.976 170.716 18.352C171.412 17.968 171.772 17.464 171.772 16.816C171.772 15.904 171.052 15.256 170.236 15.256C169.876 15.256 169.564 15.376 169.276 15.544C168.7 15.88 167.788 16.216 166.66 16.216C164.884 16.216 163.42 15.376 162.988 14.08H171.196C171.916 14.08 172.588 13.528 172.588 12.16ZM162.916 11.608C163.204 10.336 164.476 9.256 166.06 9.256C167.644 9.256 168.892 10.336 169.18 11.608H162.916Z" fill="#ED1C24"/>
</svg>
