<svg width="81" height="20" viewBox="0 0 81 20" fill="none" xmlns="http://www.w3.org/2000/svg">
<path d="M7.33188 15.6044C11.3119 15.6044 14.4919 12.5044 14.4919 8.52436C14.4919 4.52436 11.3119 1.42436 7.33188 1.42436C3.33188 1.42436 0.15188 4.52436 0.15188 8.52436C0.15188 12.5044 3.33188 15.6044 7.33188 15.6044ZM7.31188 12.5644C5.07188 12.5644 3.35188 10.7844 3.35188 8.52436C3.35188 6.28436 5.07188 4.46436 7.31188 4.46436C9.55188 4.46436 11.2919 6.28436 11.2919 8.52436C11.2919 10.7844 9.55188 12.5644 7.31188 12.5644ZM21.1188 15.6044C24.1388 15.6044 26.5788 13.1644 26.5788 10.1044C26.5788 7.08436 24.1388 4.64436 21.1188 4.64436C18.0988 4.64436 15.6588 7.08436 15.6588 10.1044C15.6588 13.1644 18.0988 15.6044 21.1188 15.6044ZM21.1188 12.8044C19.6588 12.8044 18.4388 11.6244 18.4388 10.1044C18.4388 8.62436 19.6588 7.44436 21.1188 7.44436C22.6188 7.44436 23.7988 8.62436 23.7988 10.1044C23.7988 11.6244 22.6188 12.8044 21.1188 12.8044ZM40.89 4.64436C39.49 4.64436 38.29 5.12436 37.45 5.92436C36.79 5.26436 35.89 4.64436 34.33 4.64436C32.87 4.64436 31.87 5.18436 31.23 5.90436C31.15 5.18436 30.55 4.64436 29.81 4.64436C29.03 4.64436 28.39 5.28436 28.39 6.08436V14.6244C28.39 15.1444 28.65 15.4044 29.17 15.4044H30.49C30.99 15.4044 31.25 15.1444 31.25 14.6244V9.46436C31.25 8.12436 32.11 7.38436 33.25 7.38436C34.41 7.38436 35.23 8.12436 35.23 9.46436V14.6244C35.23 15.1444 35.49 15.4044 36.01 15.4044H37.33C37.83 15.4044 38.09 15.1444 38.09 14.6244V9.42436C38.09 8.08436 38.95 7.38436 40.09 7.38436C41.25 7.38436 42.07 8.12436 42.07 9.46436V14.6244C42.07 15.1444 42.33 15.4044 42.85 15.4044H44.17C44.67 15.4044 44.93 15.1444 44.93 14.6244V8.62436C44.93 6.34436 43.55 4.64436 40.89 4.64436ZM56.1953 4.64436C55.5553 4.64436 55.0153 5.06436 54.8353 5.64436C54.0153 4.94436 53.0353 4.64436 51.9753 4.64436C49.0953 4.64436 46.6353 7.08436 46.6353 10.1044C46.6353 13.1644 49.0953 15.6044 51.9753 15.6044C52.9953 15.6044 53.9553 15.2644 54.7753 14.4844V14.6244C54.7753 15.1444 55.0353 15.4044 55.5553 15.4044H56.8753C57.3753 15.4044 57.6353 15.1444 57.6353 14.6244V6.08436C57.6353 5.28436 56.9953 4.64436 56.1953 4.64436ZM52.0953 12.8044C50.6353 12.8044 49.4153 11.6244 49.4153 10.1044C49.4153 8.62436 50.6353 7.44436 52.0953 7.44436C53.5953 7.44436 54.7753 8.62436 54.7753 10.1044C54.7753 11.6244 53.5953 12.8044 52.0953 12.8044ZM65.9883 4.64436C64.6083 4.64436 63.6083 5.18436 62.9683 5.90436C62.8883 5.18436 62.2683 4.64436 61.5483 4.64436C60.7683 4.64436 60.1283 5.28436 60.1283 6.08436V14.8444C60.1283 15.2044 60.3283 15.4044 60.6883 15.4044H62.4283C62.7883 15.4044 62.9883 15.2044 62.9883 14.8444V9.46436C62.9883 8.14436 63.8483 7.38436 64.9883 7.38436C66.1483 7.38436 66.9683 8.14436 66.9683 9.46436V14.8444C66.9683 15.2044 67.1683 15.4044 67.5283 15.4044H69.2683C69.6283 15.4044 69.8283 15.2044 69.8283 14.8444V8.62436C69.8283 6.34436 68.4483 4.64436 65.9883 4.64436ZM73.5577 3.56436C74.4577 3.56436 75.1977 2.82436 75.1977 1.90436C75.1977 1.00436 74.4577 0.264357 73.5577 0.264357C72.6377 0.264357 71.8977 1.00436 71.8977 1.90436C71.8977 2.82436 72.6377 3.56436 73.5577 3.56436ZM72.1777 6.08436V14.4444C72.1777 15.9244 71.8577 17.1244 70.5377 17.1244C69.6977 17.1244 69.0977 17.8044 69.0977 18.5644C69.0977 19.2644 69.6377 19.9844 70.5977 19.9844C72.0977 19.9844 72.6577 19.7844 73.4377 19.0844C74.4377 18.2044 75.0177 16.5844 75.0177 15.0044L75.0377 6.08436C75.0377 5.28436 74.3977 4.64436 73.5977 4.64436C72.8177 4.64436 72.1777 5.28436 72.1777 6.08436ZM78.9906 3.56436C79.8906 3.56436 80.6306 2.82436 80.6306 1.90436C80.6306 1.00436 79.8906 0.264357 78.9906 0.264357C78.0706 0.264357 77.3306 1.00436 77.3306 1.90436C77.3306 2.82436 78.0706 3.56436 78.9906 3.56436ZM80.4306 6.08436C80.4306 5.28436 79.7906 4.64436 78.9906 4.64436C78.2106 4.64436 77.5706 5.28436 77.5706 6.08436V14.6244C77.5706 15.1444 77.8306 15.4044 78.3506 15.4044H79.6706C80.1706 15.4044 80.4306 15.1444 80.4306 14.6244V6.08436Z" fill="white"/>
</svg>
