<svg width="140" height="24" viewBox="0 0 140 24" fill="none" xmlns="http://www.w3.org/2000/svg">
<path d="M127.18 0.00281953C125.317 0.00158085 123.48 0.43458 121.813 1.26745C120.147 2.10032 118.698 3.31012 117.581 4.80084C116.463 3.31078 115.014 2.10142 113.348 1.26857C111.682 0.435726 109.844 0.00227556 107.982 0.00253336C106.119 0.00279116 104.282 0.436753 102.616 1.27006C100.951 2.10337 99.5017 3.31312 98.3844 4.80349C97.4879 3.60795 96.3758 2.59051 95.1054 1.80356L95.0944 11.9997C95.0947 13.2486 94.7246 14.4696 94.0309 15.5081C93.3371 16.5466 92.3509 17.3561 91.1971 17.834C90.0433 18.312 88.7736 18.437 87.5487 18.1932C86.3238 17.9494 85.1987 17.3479 84.3157 16.4646C83.4328 15.5812 82.8317 14.4559 82.5884 13.2309C82.3451 12.0059 82.4707 10.7363 82.9491 9.58263C83.4275 8.42898 84.2374 7.44315 85.2762 6.74984C86.315 6.05653 87.5361 5.6869 88.785 5.68771C89.9471 5.68701 91.0863 6.01021 92.0749 6.62104L92.3294 6.77733L92.3349 0.536529C89.971 -0.192579 87.4398 -0.174245 85.0868 0.589032C82.7338 1.35231 80.6737 2.82331 79.188 4.80115C78.0704 3.31128 76.6212 2.10208 74.9553 1.26924C73.2893 0.436405 71.4524 0.00281953 69.5899 0.00281953C67.7274 0.00281953 65.8905 0.436405 64.2246 1.26924C62.5587 2.10208 61.1095 3.31128 59.9918 4.80115C58.8742 3.31128 57.425 2.10208 55.7591 1.26924C54.0932 0.436405 52.2562 0.00281953 50.3937 0.00281953C48.5312 0.00281953 46.6943 0.436405 45.0284 1.26924C43.3625 2.10208 41.9133 3.31128 40.7956 4.80115C39.6781 3.3113 38.2291 2.10208 36.5633 1.26924C34.8975 0.436401 33.0607 0.00281953 31.1983 0.00281953C29.3359 0.00281953 27.499 0.436401 25.8332 1.26924C24.1674 2.10208 22.7184 3.3113 21.6009 4.80115C20.0899 2.786 17.9831 1.29738 15.579 0.546163C13.175 -0.205053 10.5955 -0.180774 8.20595 0.615569C5.81644 1.41191 3.73808 2.93995 2.26531 4.98319C0.792526 7.02643 0 9.48128 0 12C0 14.5187 0.792526 16.9736 2.26531 19.0168C3.73808 21.0601 5.81644 22.5881 8.20595 23.3844C10.5955 24.1808 13.175 24.2051 15.579 23.4538C17.9831 22.7026 20.0899 21.214 21.6009 19.1988C22.7179 20.6895 24.1667 21.8994 25.8326 22.7327C27.4985 23.5661 29.3356 24 31.1983 24C33.061 24 34.898 23.5661 36.5639 22.7327C38.2298 21.8994 39.6786 20.6895 40.7956 19.1988C41.9128 20.6895 43.3618 21.8994 45.0278 22.7328C46.6938 23.5661 48.5309 24 50.3937 24C52.2565 24 54.0937 23.5661 55.7597 22.7328C57.4257 21.8994 58.8747 20.6895 59.9918 19.1988C61.109 20.6895 62.558 21.8994 64.224 22.7328C65.8899 23.5661 67.7271 24 69.5899 24C71.4527 24 73.2899 23.5661 74.9559 22.7328C76.6219 21.8994 78.0709 20.6895 79.188 19.1988C80.3052 20.6895 81.7541 21.8994 83.4201 22.7328C85.0861 23.5661 86.9232 24 88.786 24C90.6488 24 92.486 23.5661 94.152 22.7328C95.8179 21.8994 97.2669 20.6895 98.384 19.1988C99.5012 20.6895 100.95 21.8994 102.616 22.7328C104.282 23.5661 106.119 24 107.982 24C109.845 24 111.682 23.5661 113.348 22.7328C115.014 21.8994 116.463 20.6895 117.58 19.1988C118.807 20.835 120.432 22.1304 122.3 22.962C124.169 23.7936 126.219 24.1337 128.256 23.9502C130.293 23.7666 132.249 23.0655 133.938 21.9133C135.628 20.7611 136.995 19.1961 137.91 17.3669C138.825 15.5378 139.257 13.5052 139.165 11.4621C139.073 9.41905 138.46 7.43337 137.385 5.69362C136.31 3.95387 134.808 2.51782 133.022 1.52182C131.236 0.525814 129.225 0.00293276 127.18 0.00281953H127.18Z" fill="white"/>
</svg>
